<?xml version="1.0" encoding="UTF-8" standalone="no"?>
<!-- Created with Inkscape (http://www.inkscape.org/) -->

<svg
   xmlns:dc="http://purl.org/dc/elements/1.1/"
   xmlns:cc="http://creativecommons.org/ns#"
   xmlns:rdf="http://www.w3.org/1999/02/22-rdf-syntax-ns#"
   xmlns:svg="http://www.w3.org/2000/svg"
   xmlns="http://www.w3.org/2000/svg"
   xmlns:xlink="http://www.w3.org/1999/xlink"
   xmlns:sodipodi="http://sodipodi.sourceforge.net/DTD/sodipodi-0.dtd"
   xmlns:inkscape="http://www.inkscape.org/namespaces/inkscape"
   id="svg2"
   version="1.1"
   inkscape:version="0.48.2 r9819"
   width="591.25"
   height="341.25"
   xml:space="preserve"
   sodipodi:docname="CylinBCXY2.eps"><metadata
     id="metadata8"><rdf:RDF><cc:Work
         rdf:about=""><dc:format>image/svg+xml</dc:format><dc:type
           rdf:resource="http://purl.org/dc/dcmitype/StillImage" /><dc:title></dc:title></cc:Work></rdf:RDF></metadata><defs
     id="defs6"><clipPath
       clipPathUnits="userSpaceOnUse"
       id="clipPath18"><path
         d="m 0,0 4730,0 0,2730 L 0,2730 0,0 z"
         id="path20" /></clipPath><clipPath
       clipPathUnits="userSpaceOnUse"
       id="clipPath24"><path
         d="M 0,66.0117 2.33984,2730 4738.36,2725.82 4736.02,61.8281 0,66.0117 z"
         id="path26" /></clipPath><clipPath
       clipPathUnits="userSpaceOnUse"
       id="clipPath30"><path
         d="m 0,2730 4730,0 L 4730,10 0,10 0,2730 z"
         id="path32" /></clipPath><clipPath
       clipPathUnits="userSpaceOnUse"
       id="clipPath36"><path
         d="m 0,2730 4730,0 L 4730,60 0,60 0,2730 z"
         id="path38" /></clipPath><clipPath
       clipPathUnits="userSpaceOnUse"
       id="clipPath42"><path
         d="m 0,2730 4730,0 0,-2670.0039 -4730,0 L 0,2730 z"
         id="path44" /></clipPath><clipPath
       clipPathUnits="userSpaceOnUse"
       id="clipPath48"><path
         d="m 0,2730 4730,0 0,-2670.0039 -4730,0 L 0,2730 z"
         id="path50" /></clipPath><clipPath
       clipPathUnits="userSpaceOnUse"
       id="clipPath54"><path
         d="m -7.92969,2730.04 4739.99969,0 0,-2670.0009 -4739.99969,0 0,2670.0009 z"
         id="path56" /></clipPath><clipPath
       clipPathUnits="userSpaceOnUse"
       id="clipPath60"><path
         d="m 0,2730 4730,0 0,-2670.0039 -4730,0 L 0,2730 z"
         id="path62" /></clipPath><clipPath
       clipPathUnits="userSpaceOnUse"
       id="clipPath66"><path
         d="m 0,2730 4740,0 0,-2670.0039 -4740,0 L 0,2730 z"
         id="path68" /></clipPath><clipPath
       clipPathUnits="userSpaceOnUse"
       id="clipPath72"><path
         d="m 0,2730 4730,0 0,-2670.0039 -4730,0 L 0,2730 z"
         id="path74" /></clipPath><clipPath
       clipPathUnits="userSpaceOnUse"
       id="clipPath78"><path
         d="M 0,66.0195 2.33984,2730 4738.36,2725.82 4736.02,61.8359 0,66.0195 z"
         id="path80" /></clipPath><clipPath
       clipPathUnits="userSpaceOnUse"
       id="clipPath84"><path
         d="m 0,2730 4730,0 0,-2670.0039 -4730,0 L 0,2730 z"
         id="path86" /></clipPath><clipPath
       clipPathUnits="userSpaceOnUse"
       id="clipPath90"><path
         d="m 0,2730 4740,0 0,-2670.0039 -4740,0 L 0,2730 z"
         id="path92" /></clipPath><clipPath
       clipPathUnits="userSpaceOnUse"
       id="clipPath96"><path
         d="m 0,2730 4730,0 0,-2670.0039 -4730,0 L 0,2730 z"
         id="path98" /></clipPath><clipPath
       clipPathUnits="userSpaceOnUse"
       id="clipPath102"><path
         d="M 0,66.0195 2.33984,2730 4738.36,2725.82 4736.02,61.8359 0,66.0195 z"
         id="path104" /></clipPath><clipPath
       clipPathUnits="userSpaceOnUse"
       id="clipPath108"><path
         d="m 0,2730 4730,0 0,-2670.0039 -4730,0 L 0,2730 z"
         id="path110" /></clipPath><clipPath
       clipPathUnits="userSpaceOnUse"
       id="clipPath120"><path
         d="m 0,2730 4730,0 L 4730,20 0,20 0,2730 z"
         id="path122" /></clipPath><clipPath
       clipPathUnits="userSpaceOnUse"
       id="clipPath164"><path
         d="m 0,2730 4730,0 L 4730,10 0,10 0,2730 z"
         id="path166" /></clipPath></defs><sodipodi:namedview
     pagecolor="#ffffff"
     bordercolor="#666666"
     borderopacity="1"
     objecttolerance="10"
     gridtolerance="10"
     guidetolerance="10"
     inkscape:pageopacity="0"
     inkscape:pageshadow="2"
     inkscape:window-width="1680"
     inkscape:window-height="1026"
     id="namedview4"
     showgrid="false"
     inkscape:zoom="0.69157509"
     inkscape:cx="295.625"
     inkscape:cy="170.625"
     inkscape:window-x="0"
     inkscape:window-y="24"
     inkscape:window-maximized="1"
     inkscape:current-layer="g10" /><g
     id="g10"
     inkscape:groupmode="layer"
     inkscape:label="ink_ext_XXXXXX"
     transform="matrix(1.25,0,0,-1.25,0,341.25)"><g
       id="g12"
       transform="scale(0.1,0.1)"><g
         id="g14"><g
           id="g16"
           clip-path="url(#clipPath18)"><g
             id="g22"
             clip-path="url(#clipPath24)"><g
               id="g28"
               clip-path="url(#clipPath30)"><g
                 id="g34"
                 clip-path="url(#clipPath36)"><g
                   id="g40"
                   clip-path="url(#clipPath42)"><g
                     id="g46"
                     clip-path="url(#clipPath48)"><g
                       id="g52"
                       clip-path="url(#clipPath54)"><g
                         id="g58"
                         clip-path="url(#clipPath60)"><g
                           id="g64"
                           clip-path="url(#clipPath66)"><g
                             id="g70"
                             clip-path="url(#clipPath72)"><g
                               id="g76"
                               clip-path="url(#clipPath78)"><g
                                 id="g82"
                                 clip-path="url(#clipPath84)"><g
                                   id="g88"
                                   clip-path="url(#clipPath90)"><g
                                   id="g94"
                                   clip-path="url(#clipPath96)"><g
                                   id="g100"
                                   clip-path="url(#clipPath102)"><g
                                   id="g106"
                                   clip-path="url(#clipPath108)"><g
                                   id="g112"
                                   transform="matrix(2.35256,2664,-4736,4.18233,4736,61.8228)"><image
                                   sodipodi:absref="/home/hongyi/Documents/git/openEMS_docu/svg/ink_ext_XXXXXX_img0.png"
                                   xlink:href="ink_ext_XXXXXX_img0.png"
                                   id="image114"
                                   transform="matrix(1,0,0,-1,0,1)"
                                   height="1"
                                   width="1" /></g></g></g></g></g></g></g></g></g></g></g></g></g></g></g></g></g></g><g
         id="g116"><g
           id="g118"
           clip-path="url(#clipPath120)"><path
             d="m 55,199.996 1495.12,74.41"
             style="fill:none;stroke:#1131fb;stroke-opacity:1;stroke-width:20;stroke-linecap:butt;stroke-linejoin:miter;stroke-miterlimit:4;stroke-dasharray:none"
             id="path124" /><path
             d="m 3088.59,348.867 1482.7,68.242"
             style="fill:#ff0000;fill-opacity:1;fill-rule:nonzero;stroke:none"
             id="path126" /><path
             d="m 3088.59,348.867 1482.7,68.242"
             style="fill:none;stroke:#db0404;stroke-opacity:1;stroke-width:20;stroke-linecap:butt;stroke-linejoin:miter;stroke-miterlimit:4;stroke-dasharray:none"
             id="path128" /><path
             d="M 79.8398,199.996 C 45.3086,880.469 342.109,1570.16 860.039,2012.89 c 517.931,442.73 1245.351,628.63 1912.191,488.67 480.5,-100.86 925.15,-365.11 1243.36,-738.98 318.24,-373.87 508.08,-855.041 530.89,-1345.471"
             style="fill:none;stroke:#0f02e4;stroke-opacity:1;stroke-width:20;stroke-linecap:butt;stroke-linejoin:miter;stroke-miterlimit:4;stroke-dasharray:none"
             id="path130" /><path
             d="m 1537.7,274.406 c -5.94,130.321 21.79,262.043 79.8,378.871 58.01,116.84 146.13,218.563 253.52,292.621 107.38,74.062 233.78,120.312 363.63,133.012 129.8,12.69 262.77,-8.17 382.5,-60.04 133.24,-57.741 249.61,-153.874 331.4,-273.831 81.8,-120 128.79,-263.441 133.87,-408.562"
             style="fill:none;stroke:#fe0b0b;stroke-opacity:1;stroke-width:20;stroke-linecap:butt;stroke-linejoin:miter;stroke-miterlimit:4;stroke-dasharray:none"
             id="path132" /><g
             id="g134"
             transform="scale(10,10)"><text
               transform="matrix(0.999646,-0.0265955,-0.0265955,-0.999646,349.882,42.943)"
               id="text136"><tspan
                 style="fill:#ff0000;fill-opacity:1;fill-rule:nonzero;stroke:none;font-family:DejaVuSans;font-variant:normal;font-weight:normal;font-size:15.99999557;writing-mode:lr;-inkscape-font-specification:DejaVuSans"
                 x="0 19.29311466 39.56893304"
                 y="0"
                 sodipodi:role="line"
                 id="tspan138">PEC</tspan></text>
<text
               transform="matrix(0.999869,-0.0162151,-0.0162151,-0.999869,199.716,71.902)"
               id="text140"><tspan
                 style="fill:#ff0000;fill-opacity:1;fill-rule:nonzero;stroke:none;font-family:DejaVuSans;font-variant:normal;font-weight:normal;font-size:16.00000757;writing-mode:lr;-inkscape-font-specification:DejaVuSans"
                 x="0 19.29272913 39.56949073"
                 y="0"
                 sodipodi:role="line"
                 id="tspan142">PEC</tspan></text>
</g><g
             id="g144"
             transform="scale(10,10)"><text
               transform="matrix(0.999253,-0.0386378,-0.0386378,-0.999253,189.953,259.815)"
               id="text146"><tspan
                 style="fill:#0000ff;fill-opacity:1;fill-rule:nonzero;stroke:none;font-family:DejaVuSans;font-variant:normal;font-weight:normal;font-size:15.9999955;writing-mode:lr;-inkscape-font-specification:DejaVuSans"
                 x="0 19.29249057 46.9348188"
                 y="0"
                 sodipodi:role="line"
                 id="tspan148">PMC</tspan></text>
<text
               transform="matrix(0.998737,-0.0502388,-0.0502388,-0.998737,56.3051,30.2879)"
               id="text150"><tspan
                 style="fill:#0000ff;fill-opacity:1;fill-rule:nonzero;stroke:none;font-family:DejaVuSans;font-variant:normal;font-weight:normal;font-size:15.99999626;writing-mode:lr;-inkscape-font-specification:DejaVuSans"
                 x="0 19.29266749 46.93518902"
                 y="0"
                 sodipodi:role="line"
                 id="tspan152">PMC</tspan></text>
</g><g
             id="g154"
             transform="scale(10,10)"><text
               transform="matrix(1,0,0,-1,25.7121,4.69023)"
               id="text156"><tspan
                 style="fill:#000000;fill-opacity:1;fill-rule:nonzero;stroke:none;font-family:DejaVuSans;font-variant:normal;font-weight:normal;font-size:16;writing-mode:lr;-inkscape-font-specification:DejaVuSans"
                 x="0 10.56546875 18.57328125 34.15532813 43.96645312 53.44157811 66.86715619"
                 y="0"
                 sodipodi:role="line"
                 id="tspan158">φ_max=π</tspan></text>
</g></g></g><g
         id="g160"><g
           id="g162"
           clip-path="url(#clipPath164)"><g
             id="g168"
             transform="scale(10,10)"><text
               transform="matrix(1,0,0,-1,333.212,17.332)"
               id="text170"><tspan
                 style="fill:#000000;fill-opacity:1;fill-rule:nonzero;stroke:none;font-family:DejaVuSans;font-variant:normal;font-weight:normal;font-size:16;writing-mode:lr;-inkscape-font-specification:DejaVuSans"
                 x="0 10.56 25.856 33.85521875 49.43921875 53.88721875 64.03121875 77.43921875"
                 y="0"
                 sodipodi:role="line"
                 id="tspan172">φ _min=0</tspan></text>
</g></g></g></g></g></svg>