<?xml version="1.0" encoding="UTF-8" standalone="no"?>
<!-- Created with Inkscape (http://www.inkscape.org/) -->

<svg
   xmlns:dc="http://purl.org/dc/elements/1.1/"
   xmlns:cc="http://creativecommons.org/ns#"
   xmlns:rdf="http://www.w3.org/1999/02/22-rdf-syntax-ns#"
   xmlns:svg="http://www.w3.org/2000/svg"
   xmlns="http://www.w3.org/2000/svg"
   xmlns:sodipodi="http://sodipodi.sourceforge.net/DTD/sodipodi-0.dtd"
   xmlns:inkscape="http://www.inkscape.org/namespaces/inkscape"
   id="svg2"
   version="1.1"
   inkscape:version="0.48.2 r9819"
   width="560"
   height="421.25"
   xml:space="preserve"
   sodipodi:docname="GaussPulseFreq.eps"><metadata
     id="metadata8"><rdf:RDF><cc:Work
         rdf:about=""><dc:format>image/svg+xml</dc:format><dc:type
           rdf:resource="http://purl.org/dc/dcmitype/StillImage" /><dc:title></dc:title></cc:Work></rdf:RDF></metadata><defs
     id="defs6"><clipPath
       clipPathUnits="userSpaceOnUse"
       id="clipPath18"><path
         d="m 0,3370 4480,0 0,-3360.83203 -4480,0 L 0,3370 z"
         id="path20" /></clipPath><clipPath
       clipPathUnits="userSpaceOnUse"
       id="clipPath262"><path
         d="m 582.5,3118.33 3472.5,0 0,-2739.998 -3472.5,0 0,2739.998 z"
         id="path264" /></clipPath><clipPath
       clipPathUnits="userSpaceOnUse"
       id="clipPath290"><path
         d="m 0,3370 4480,0 0,-3360.83203 -4480,0 L 0,3370 z"
         id="path292" /></clipPath><clipPath
       clipPathUnits="userSpaceOnUse"
       id="clipPath320"><path
         d="m 582.5,3118.33 3472.5,0 0,-2739.998 -3472.5,0 0,2739.998 z"
         id="path322" /></clipPath><clipPath
       clipPathUnits="userSpaceOnUse"
       id="clipPath330"><path
         d="m 0,3370 4480,0 0,-3360.83203 -4480,0 L 0,3370 z"
         id="path332" /></clipPath><clipPath
       clipPathUnits="userSpaceOnUse"
       id="clipPath364"><path
         d="m 582.5,3118.33 3472.5,0 0,-2739.998 -3472.5,0 0,2739.998 z"
         id="path366" /></clipPath><clipPath
       clipPathUnits="userSpaceOnUse"
       id="clipPath374"><path
         d="m 0,3370 4480,0 0,-3360.83203 -4480,0 L 0,3370 z"
         id="path376" /></clipPath><clipPath
       clipPathUnits="userSpaceOnUse"
       id="clipPath404"><path
         d="m 582.5,3118.33 3472.5,0 0,-2739.998 -3472.5,0 0,2739.998 z"
         id="path406" /></clipPath><clipPath
       clipPathUnits="userSpaceOnUse"
       id="clipPath414"><path
         d="m 0,3370 4480,0 0,-3360.83203 -4480,0 L 0,3370 z"
         id="path416" /></clipPath><clipPath
       clipPathUnits="userSpaceOnUse"
       id="clipPath448"><path
         d="m 582.5,3118.33 3472.5,0 0,-2739.998 -3472.5,0 0,2739.998 z"
         id="path450" /></clipPath><clipPath
       clipPathUnits="userSpaceOnUse"
       id="clipPath458"><path
         d="m 0,3370 4480,0 0,-3360.83203 -4480,0 L 0,3370 z"
         id="path460" /></clipPath><clipPath
       clipPathUnits="userSpaceOnUse"
       id="clipPath488"><path
         d="m 582.5,3118.33 3472.5,0 0,-2739.998 -3472.5,0 0,2739.998 z"
         id="path490" /></clipPath><clipPath
       clipPathUnits="userSpaceOnUse"
       id="clipPath498"><path
         d="m 0,3370 4480,0 0,-3360.83203 -4480,0 L 0,3370 z"
         id="path500" /></clipPath><clipPath
       clipPathUnits="userSpaceOnUse"
       id="clipPath520"><path
         d="m 582.5,3118.33 3472.5,0 0,-2739.998 -3472.5,0 0,2739.998 z"
         id="path522" /></clipPath><clipPath
       clipPathUnits="userSpaceOnUse"
       id="clipPath530"><path
         d="m 0,3370 4480,0 0,-3360.83203 -4480,0 L 0,3370 z"
         id="path532" /></clipPath><clipPath
       clipPathUnits="userSpaceOnUse"
       id="clipPath542"><path
         d="m 582.5,3118.33 3472.5,0 0,-2739.998 -3472.5,0 0,2739.998 z"
         id="path544" /></clipPath><clipPath
       clipPathUnits="userSpaceOnUse"
       id="clipPath552"><path
         d="m 0,3370 4480,0 0,-3360.83203 -4480,0 L 0,3370 z"
         id="path554" /></clipPath></defs><sodipodi:namedview
     pagecolor="#ffffff"
     bordercolor="#666666"
     borderopacity="1"
     objecttolerance="10"
     gridtolerance="10"
     guidetolerance="10"
     inkscape:pageopacity="0"
     inkscape:pageshadow="2"
     inkscape:window-width="1680"
     inkscape:window-height="1026"
     id="namedview4"
     showgrid="false"
     inkscape:zoom="1.9399969"
     inkscape:cx="280"
     inkscape:cy="211.19787"
     inkscape:window-x="0"
     inkscape:window-y="24"
     inkscape:window-maximized="1"
     inkscape:current-layer="g456" /><g
     id="g10"
     inkscape:groupmode="layer"
     inkscape:label="ink_ext_XXXXXX"
     transform="matrix(1.25,0,0,-1.25,0,421.25)"><g
       id="g12"
       transform="scale(0.1,0.1)"><g
         id="g14"><g
           id="g16"
           clip-path="url(#clipPath18)"><path
             d="m 0,9.16797 4480,0 0,3360.83003 -4480,0 L 0,9.16797 z"
             style="fill:#ffffff;fill-opacity:1;fill-rule:nonzero;stroke:none"
             id="path22" /><path
             d="m 582.5,379.168 3471.67,0 0,2739.16 -3471.67,0 0,-2739.16 z"
             style="fill:#ffffff;fill-opacity:1;fill-rule:evenodd;stroke:none"
             id="path24" /><path
             d="m 582.5,379.168 0,2739.162 3471.67,0 0,-2739.162 -3471.67,0"
             style="fill:none;stroke:#ffffff;stroke-opacity:1;stroke-width:5;stroke-linecap:butt;stroke-linejoin:round;stroke-miterlimit:10;stroke-dasharray:none"
             id="path26" /><path
             d="m 582.5,379.168 0,2739.162"
             style="fill:none;stroke:#000000;stroke-opacity:1;stroke-width:3.33333;stroke-linecap:butt;stroke-linejoin:round;stroke-miterlimit:10;stroke-dasharray:5,40;stroke-dashoffset:0"
             id="path28" /><path
             d="m 582.5,3118.33 0,0"
             style="fill:none;stroke:#000000;stroke-opacity:1;stroke-width:3.33333;stroke-linecap:butt;stroke-linejoin:round;stroke-miterlimit:10;stroke-dasharray:5,40;stroke-dashoffset:0"
             id="path30" /><path
             d="m 1273.33,379.168 0,2739.162"
             style="fill:none;stroke:#000000;stroke-opacity:1;stroke-width:3.33333;stroke-linecap:butt;stroke-linejoin:round;stroke-miterlimit:10;stroke-dasharray:5,40;stroke-dashoffset:0"
             id="path32" /><path
             d="m 1273.33,3118.33 0,0"
             style="fill:none;stroke:#000000;stroke-opacity:1;stroke-width:3.33333;stroke-linecap:butt;stroke-linejoin:round;stroke-miterlimit:10;stroke-dasharray:5,40;stroke-dashoffset:0"
             id="path34" /><path
             d="m 1965,379.168 0,2739.162"
             style="fill:none;stroke:#000000;stroke-opacity:1;stroke-width:3.33333;stroke-linecap:butt;stroke-linejoin:round;stroke-miterlimit:10;stroke-dasharray:5,40;stroke-dashoffset:0"
             id="path36" /><path
             d="m 1965,3118.33 0,0"
             style="fill:none;stroke:#000000;stroke-opacity:1;stroke-width:3.33333;stroke-linecap:butt;stroke-linejoin:round;stroke-miterlimit:10;stroke-dasharray:5,40;stroke-dashoffset:0"
             id="path38" /><path
             d="m 2656.67,379.168 0,2739.162"
             style="fill:none;stroke:#000000;stroke-opacity:1;stroke-width:3.33333;stroke-linecap:butt;stroke-linejoin:round;stroke-miterlimit:10;stroke-dasharray:5,40;stroke-dashoffset:0"
             id="path40" /><path
             d="m 2656.67,3118.33 0,0"
             style="fill:none;stroke:#000000;stroke-opacity:1;stroke-width:3.33333;stroke-linecap:butt;stroke-linejoin:round;stroke-miterlimit:10;stroke-dasharray:5,40;stroke-dashoffset:0"
             id="path42" /><path
             d="m 3348.33,379.168 0,2739.162"
             style="fill:none;stroke:#000000;stroke-opacity:1;stroke-width:3.33333;stroke-linecap:butt;stroke-linejoin:round;stroke-miterlimit:10;stroke-dasharray:5,40;stroke-dashoffset:0"
             id="path44" /><path
             d="m 3348.33,3118.33 0,0"
             style="fill:none;stroke:#000000;stroke-opacity:1;stroke-width:3.33333;stroke-linecap:butt;stroke-linejoin:round;stroke-miterlimit:10;stroke-dasharray:5,40;stroke-dashoffset:0"
             id="path46" /><path
             d="m 4040,379.168 0,2739.162"
             style="fill:none;stroke:#000000;stroke-opacity:1;stroke-width:3.33333;stroke-linecap:butt;stroke-linejoin:round;stroke-miterlimit:10;stroke-dasharray:5,40;stroke-dashoffset:0"
             id="path48" /><path
             d="m 4040,3118.33 0,0"
             style="fill:none;stroke:#000000;stroke-opacity:1;stroke-width:3.33333;stroke-linecap:butt;stroke-linejoin:round;stroke-miterlimit:10;stroke-dasharray:5,40;stroke-dashoffset:0"
             id="path50" /><path
             d="m 582.5,621.668 3471.67,0"
             style="fill:none;stroke:#000000;stroke-opacity:1;stroke-width:3.33333;stroke-linecap:butt;stroke-linejoin:round;stroke-miterlimit:10;stroke-dasharray:5,40;stroke-dashoffset:0"
             id="path52" /><path
             d="m 4054.17,621.668 0,0"
             style="fill:none;stroke:#000000;stroke-opacity:1;stroke-width:3.33333;stroke-linecap:butt;stroke-linejoin:round;stroke-miterlimit:10;stroke-dasharray:5,40;stroke-dashoffset:0"
             id="path54" /><path
             d="m 582.5,926.668 3471.67,0"
             style="fill:none;stroke:#000000;stroke-opacity:1;stroke-width:3.33333;stroke-linecap:butt;stroke-linejoin:round;stroke-miterlimit:10;stroke-dasharray:5,40;stroke-dashoffset:0"
             id="path56" /><path
             d="m 4054.17,926.668 0,0"
             style="fill:none;stroke:#000000;stroke-opacity:1;stroke-width:3.33333;stroke-linecap:butt;stroke-linejoin:round;stroke-miterlimit:10;stroke-dasharray:5,40;stroke-dashoffset:0"
             id="path58" /><path
             d="m 582.5,1230.83 3471.67,0"
             style="fill:none;stroke:#000000;stroke-opacity:1;stroke-width:3.33333;stroke-linecap:butt;stroke-linejoin:round;stroke-miterlimit:10;stroke-dasharray:5,40;stroke-dashoffset:0"
             id="path60" /><path
             d="m 4054.17,1230.83 0,0"
             style="fill:none;stroke:#000000;stroke-opacity:1;stroke-width:3.33333;stroke-linecap:butt;stroke-linejoin:round;stroke-miterlimit:10;stroke-dasharray:5,40;stroke-dashoffset:0"
             id="path62" /><path
             d="m 582.5,1535.83 3471.67,0"
             style="fill:none;stroke:#000000;stroke-opacity:1;stroke-width:3.33333;stroke-linecap:butt;stroke-linejoin:round;stroke-miterlimit:10;stroke-dasharray:5,40;stroke-dashoffset:0"
             id="path64" /><path
             d="m 4054.17,1535.83 0,0"
             style="fill:none;stroke:#000000;stroke-opacity:1;stroke-width:3.33333;stroke-linecap:butt;stroke-linejoin:round;stroke-miterlimit:10;stroke-dasharray:5,40;stroke-dashoffset:0"
             id="path66" /><path
             d="m 582.5,1840 3471.67,0"
             style="fill:none;stroke:#000000;stroke-opacity:1;stroke-width:3.33333;stroke-linecap:butt;stroke-linejoin:round;stroke-miterlimit:10;stroke-dasharray:5,40;stroke-dashoffset:0"
             id="path68" /><path
             d="m 4054.17,1840 0,0"
             style="fill:none;stroke:#000000;stroke-opacity:1;stroke-width:3.33333;stroke-linecap:butt;stroke-linejoin:round;stroke-miterlimit:10;stroke-dasharray:5,40;stroke-dashoffset:0"
             id="path70" /><path
             d="m 582.5,2144.17 3471.67,0"
             style="fill:none;stroke:#000000;stroke-opacity:1;stroke-width:3.33333;stroke-linecap:butt;stroke-linejoin:round;stroke-miterlimit:10;stroke-dasharray:5,40;stroke-dashoffset:0"
             id="path72" /><path
             d="m 4054.17,2144.17 0,0"
             style="fill:none;stroke:#000000;stroke-opacity:1;stroke-width:3.33333;stroke-linecap:butt;stroke-linejoin:round;stroke-miterlimit:10;stroke-dasharray:5,40;stroke-dashoffset:0"
             id="path74" /><path
             d="m 582.5,2449.17 3471.67,0"
             style="fill:none;stroke:#000000;stroke-opacity:1;stroke-width:3.33333;stroke-linecap:butt;stroke-linejoin:round;stroke-miterlimit:10;stroke-dasharray:5,40;stroke-dashoffset:0"
             id="path76" /><path
             d="m 4054.17,2449.17 0,0"
             style="fill:none;stroke:#000000;stroke-opacity:1;stroke-width:3.33333;stroke-linecap:butt;stroke-linejoin:round;stroke-miterlimit:10;stroke-dasharray:5,40;stroke-dashoffset:0"
             id="path78" /><path
             d="m 582.5,2753.33 3471.67,0"
             style="fill:none;stroke:#000000;stroke-opacity:1;stroke-width:3.33333;stroke-linecap:butt;stroke-linejoin:round;stroke-miterlimit:10;stroke-dasharray:5,40;stroke-dashoffset:0"
             id="path80" /><path
             d="m 4054.17,2753.33 0,0"
             style="fill:none;stroke:#000000;stroke-opacity:1;stroke-width:3.33333;stroke-linecap:butt;stroke-linejoin:round;stroke-miterlimit:10;stroke-dasharray:5,40;stroke-dashoffset:0"
             id="path82" /><path
             d="m 582.5,3057.5 3471.67,0"
             style="fill:none;stroke:#000000;stroke-opacity:1;stroke-width:3.33333;stroke-linecap:butt;stroke-linejoin:round;stroke-miterlimit:10;stroke-dasharray:5,40;stroke-dashoffset:0"
             id="path84" /><path
             d="m 4054.17,3057.5 0,0"
             style="fill:none;stroke:#000000;stroke-opacity:1;stroke-width:3.33333;stroke-linecap:butt;stroke-linejoin:round;stroke-miterlimit:10;stroke-dasharray:5,40;stroke-dashoffset:0"
             id="path86" /><path
             d="m 582.5,379.168 3471.67,0"
             style="fill:none;stroke:#000000;stroke-opacity:1;stroke-width:5;stroke-linecap:butt;stroke-linejoin:round;stroke-miterlimit:10;stroke-dasharray:none"
             id="path88" /><path
             d="m 582.5,3118.33 3471.67,0"
             style="fill:none;stroke:#000000;stroke-opacity:1;stroke-width:5;stroke-linecap:butt;stroke-linejoin:round;stroke-miterlimit:10;stroke-dasharray:none"
             id="path90" /><path
             d="m 582.5,379.168 0,2739.162"
             style="fill:none;stroke:#000000;stroke-opacity:1;stroke-width:5;stroke-linecap:butt;stroke-linejoin:round;stroke-miterlimit:10;stroke-dasharray:none"
             id="path92" /><path
             d="m 4054.17,379.168 0,2739.162"
             style="fill:none;stroke:#000000;stroke-opacity:1;stroke-width:5;stroke-linecap:butt;stroke-linejoin:round;stroke-miterlimit:10;stroke-dasharray:none"
             id="path94" /><path
             d="m 582.5,379.168 3471.67,0"
             style="fill:none;stroke:#000000;stroke-opacity:1;stroke-width:5;stroke-linecap:butt;stroke-linejoin:round;stroke-miterlimit:10;stroke-dasharray:none"
             id="path96" /><path
             d="m 582.5,379.168 0,2739.162"
             style="fill:none;stroke:#000000;stroke-opacity:1;stroke-width:5;stroke-linecap:butt;stroke-linejoin:round;stroke-miterlimit:10;stroke-dasharray:none"
             id="path98" /><path
             d="m 582.5,379.168 0,35"
             style="fill:none;stroke:#000000;stroke-opacity:1;stroke-width:5;stroke-linecap:butt;stroke-linejoin:round;stroke-miterlimit:10;stroke-dasharray:none"
             id="path100" /><path
             d="m 582.5,3118.33 0,-34.16"
             style="fill:none;stroke:#000000;stroke-opacity:1;stroke-width:5;stroke-linecap:butt;stroke-linejoin:round;stroke-miterlimit:10;stroke-dasharray:none"
             id="path102" /><g
             id="g104"
             transform="scale(10,10)"><text
               transform="matrix(1,0,0,-1,49.9168,25.8332)"
               id="text106"><tspan
                 style="fill:#000000;fill-opacity:1;fill-rule:nonzero;stroke:none;font-family:Helvetica;font-variant:normal;font-weight:normal;font-size:10;writing-mode:lr;-inkscape-font-specification:Helvetica"
                 x="0 5.56 11.12"
                 y="0"
                 sodipodi:role="line"
                 id="tspan108">200</tspan></text>
</g><path
             d="m 1273.33,379.168 0,35"
             style="fill:none;stroke:#000000;stroke-opacity:1;stroke-width:5;stroke-linecap:butt;stroke-linejoin:round;stroke-miterlimit:10;stroke-dasharray:none"
             id="path110" /><path
             d="m 1273.33,3118.33 0,-34.16"
             style="fill:none;stroke:#000000;stroke-opacity:1;stroke-width:5;stroke-linecap:butt;stroke-linejoin:round;stroke-miterlimit:10;stroke-dasharray:none"
             id="path112" /><g
             id="g114"
             transform="scale(10,10)"><text
               transform="matrix(1,0,0,-1,119,25.8332)"
               id="text116"><tspan
                 style="fill:#000000;fill-opacity:1;fill-rule:nonzero;stroke:none;font-family:Helvetica;font-variant:normal;font-weight:normal;font-size:10;writing-mode:lr;-inkscape-font-specification:Helvetica"
                 x="0 5.56 11.12"
                 y="0"
                 sodipodi:role="line"
                 id="tspan118">250</tspan></text>
</g><path
             d="m 1965,379.168 0,35"
             style="fill:none;stroke:#000000;stroke-opacity:1;stroke-width:5;stroke-linecap:butt;stroke-linejoin:round;stroke-miterlimit:10;stroke-dasharray:none"
             id="path120" /><path
             d="m 1965,3118.33 0,-34.16"
             style="fill:none;stroke:#000000;stroke-opacity:1;stroke-width:5;stroke-linecap:butt;stroke-linejoin:round;stroke-miterlimit:10;stroke-dasharray:none"
             id="path122" /><g
             id="g124"
             transform="scale(10,10)"><text
               transform="matrix(1,0,0,-1,188.167,25.8332)"
               id="text126"><tspan
                 style="fill:#000000;fill-opacity:1;fill-rule:nonzero;stroke:none;font-family:Helvetica;font-variant:normal;font-weight:normal;font-size:10;writing-mode:lr;-inkscape-font-specification:Helvetica"
                 x="0 5.56 11.12"
                 y="0"
                 sodipodi:role="line"
                 id="tspan128">300</tspan></text>
</g><path
             d="m 2656.67,379.168 0,35"
             style="fill:none;stroke:#000000;stroke-opacity:1;stroke-width:5;stroke-linecap:butt;stroke-linejoin:round;stroke-miterlimit:10;stroke-dasharray:none"
             id="path130" /><path
             d="m 2656.67,3118.33 0,-34.16"
             style="fill:none;stroke:#000000;stroke-opacity:1;stroke-width:5;stroke-linecap:butt;stroke-linejoin:round;stroke-miterlimit:10;stroke-dasharray:none"
             id="path132" /><g
             id="g134"
             transform="scale(10,10)"><text
               transform="matrix(1,0,0,-1,257.333,25.8332)"
               id="text136"><tspan
                 style="fill:#000000;fill-opacity:1;fill-rule:nonzero;stroke:none;font-family:Helvetica;font-variant:normal;font-weight:normal;font-size:10;writing-mode:lr;-inkscape-font-specification:Helvetica"
                 x="0 5.56 11.12"
                 y="0"
                 sodipodi:role="line"
                 id="tspan138">350</tspan></text>
</g><path
             d="m 3348.33,379.168 0,35"
             style="fill:none;stroke:#000000;stroke-opacity:1;stroke-width:5;stroke-linecap:butt;stroke-linejoin:round;stroke-miterlimit:10;stroke-dasharray:none"
             id="path140" /><path
             d="m 3348.33,3118.33 0,-34.16"
             style="fill:none;stroke:#000000;stroke-opacity:1;stroke-width:5;stroke-linecap:butt;stroke-linejoin:round;stroke-miterlimit:10;stroke-dasharray:none"
             id="path142" /><g
             id="g144"
             transform="scale(10,10)"><text
               transform="matrix(1,0,0,-1,326.5,25.8332)"
               id="text146"><tspan
                 style="fill:#000000;fill-opacity:1;fill-rule:nonzero;stroke:none;font-family:Helvetica;font-variant:normal;font-weight:normal;font-size:10;writing-mode:lr;-inkscape-font-specification:Helvetica"
                 x="0 5.56 11.12"
                 y="0"
                 sodipodi:role="line"
                 id="tspan148">400</tspan></text>
</g><path
             d="m 4040,379.168 0,35"
             style="fill:none;stroke:#000000;stroke-opacity:1;stroke-width:5;stroke-linecap:butt;stroke-linejoin:round;stroke-miterlimit:10;stroke-dasharray:none"
             id="path150" /><path
             d="m 4040,3118.33 0,-34.16"
             style="fill:none;stroke:#000000;stroke-opacity:1;stroke-width:5;stroke-linecap:butt;stroke-linejoin:round;stroke-miterlimit:10;stroke-dasharray:none"
             id="path152" /><g
             id="g154"
             transform="scale(10,10)"><text
               transform="matrix(1,0,0,-1,395.667,25.8332)"
               id="text156"><tspan
                 style="fill:#000000;fill-opacity:1;fill-rule:nonzero;stroke:none;font-family:Helvetica;font-variant:normal;font-weight:normal;font-size:10;writing-mode:lr;-inkscape-font-specification:Helvetica"
                 x="0 5.56 11.12"
                 y="0"
                 sodipodi:role="line"
                 id="tspan158">450</tspan></text>
</g><path
             d="m 582.5,621.668 34.168,0"
             style="fill:none;stroke:#000000;stroke-opacity:1;stroke-width:5;stroke-linecap:butt;stroke-linejoin:round;stroke-miterlimit:10;stroke-dasharray:none"
             id="path160" /><path
             d="m 4054.17,621.668 -35,0"
             style="fill:none;stroke:#000000;stroke-opacity:1;stroke-width:5;stroke-linecap:butt;stroke-linejoin:round;stroke-miterlimit:10;stroke-dasharray:none"
             id="path162" /><g
             id="g164"
             transform="scale(10,10)"><text
               transform="matrix(1,0,0,-1,38.4168,58.5)"
               id="text166"><tspan
                 style="fill:#000000;fill-opacity:1;fill-rule:nonzero;stroke:none;font-family:Helvetica;font-variant:normal;font-weight:normal;font-size:10;writing-mode:lr;-inkscape-font-specification:Helvetica"
                 x="0 5.84 11.4"
                 y="0"
                 sodipodi:role="line"
                 id="tspan168">−40</tspan></text>
</g><path
             d="m 582.5,926.668 34.168,0"
             style="fill:none;stroke:#000000;stroke-opacity:1;stroke-width:5;stroke-linecap:butt;stroke-linejoin:round;stroke-miterlimit:10;stroke-dasharray:none"
             id="path170" /><path
             d="m 4054.17,926.668 -35,0"
             style="fill:none;stroke:#000000;stroke-opacity:1;stroke-width:5;stroke-linecap:butt;stroke-linejoin:round;stroke-miterlimit:10;stroke-dasharray:none"
             id="path172" /><g
             id="g174"
             transform="scale(10,10)"><text
               transform="matrix(1,0,0,-1,38.4168,89)"
               id="text176"><tspan
                 style="fill:#000000;fill-opacity:1;fill-rule:nonzero;stroke:none;font-family:Helvetica;font-variant:normal;font-weight:normal;font-size:10;writing-mode:lr;-inkscape-font-specification:Helvetica"
                 x="0 5.84 11.4"
                 y="0"
                 sodipodi:role="line"
                 id="tspan178">−35</tspan></text>
</g><path
             d="m 582.5,1230.83 34.168,0"
             style="fill:none;stroke:#000000;stroke-opacity:1;stroke-width:5;stroke-linecap:butt;stroke-linejoin:round;stroke-miterlimit:10;stroke-dasharray:none"
             id="path180" /><path
             d="m 4054.17,1230.83 -35,0"
             style="fill:none;stroke:#000000;stroke-opacity:1;stroke-width:5;stroke-linecap:butt;stroke-linejoin:round;stroke-miterlimit:10;stroke-dasharray:none"
             id="path182" /><g
             id="g184"
             transform="scale(10,10)"><text
               transform="matrix(1,0,0,-1,38.4168,119.417)"
               id="text186"><tspan
                 style="fill:#000000;fill-opacity:1;fill-rule:nonzero;stroke:none;font-family:Helvetica;font-variant:normal;font-weight:normal;font-size:10;writing-mode:lr;-inkscape-font-specification:Helvetica"
                 x="0 5.84 11.4"
                 y="0"
                 sodipodi:role="line"
                 id="tspan188">−30</tspan></text>
</g><path
             d="m 582.5,1535.83 34.168,0"
             style="fill:none;stroke:#000000;stroke-opacity:1;stroke-width:5;stroke-linecap:butt;stroke-linejoin:round;stroke-miterlimit:10;stroke-dasharray:none"
             id="path190" /><path
             d="m 4054.17,1535.83 -35,0"
             style="fill:none;stroke:#000000;stroke-opacity:1;stroke-width:5;stroke-linecap:butt;stroke-linejoin:round;stroke-miterlimit:10;stroke-dasharray:none"
             id="path192" /><g
             id="g194"
             transform="scale(10,10)"><text
               transform="matrix(1,0,0,-1,38.4168,149.917)"
               id="text196"><tspan
                 style="fill:#000000;fill-opacity:1;fill-rule:nonzero;stroke:none;font-family:Helvetica;font-variant:normal;font-weight:normal;font-size:10;writing-mode:lr;-inkscape-font-specification:Helvetica"
                 x="0 5.84 11.4"
                 y="0"
                 sodipodi:role="line"
                 id="tspan198">−25</tspan></text>
</g><path
             d="m 582.5,1840 34.168,0"
             style="fill:none;stroke:#000000;stroke-opacity:1;stroke-width:5;stroke-linecap:butt;stroke-linejoin:round;stroke-miterlimit:10;stroke-dasharray:none"
             id="path200" /><path
             d="m 4054.17,1840 -35,0"
             style="fill:none;stroke:#000000;stroke-opacity:1;stroke-width:5;stroke-linecap:butt;stroke-linejoin:round;stroke-miterlimit:10;stroke-dasharray:none"
             id="path202" /><g
             id="g204"
             transform="scale(10,10)"><text
               transform="matrix(1,0,0,-1,38.4168,180.333)"
               id="text206"><tspan
                 style="fill:#000000;fill-opacity:1;fill-rule:nonzero;stroke:none;font-family:Helvetica;font-variant:normal;font-weight:normal;font-size:10;writing-mode:lr;-inkscape-font-specification:Helvetica"
                 x="0 5.84 11.4"
                 y="0"
                 sodipodi:role="line"
                 id="tspan208">−20</tspan></text>
</g><path
             d="m 582.5,2144.17 34.168,0"
             style="fill:none;stroke:#000000;stroke-opacity:1;stroke-width:5;stroke-linecap:butt;stroke-linejoin:round;stroke-miterlimit:10;stroke-dasharray:none"
             id="path210" /><path
             d="m 4054.17,2144.17 -35,0"
             style="fill:none;stroke:#000000;stroke-opacity:1;stroke-width:5;stroke-linecap:butt;stroke-linejoin:round;stroke-miterlimit:10;stroke-dasharray:none"
             id="path212" /><g
             id="g214"
             transform="scale(10,10)"><text
               transform="matrix(1,0,0,-1,38.4168,210.75)"
               id="text216"><tspan
                 style="fill:#000000;fill-opacity:1;fill-rule:nonzero;stroke:none;font-family:Helvetica;font-variant:normal;font-weight:normal;font-size:10;writing-mode:lr;-inkscape-font-specification:Helvetica"
                 x="0 5.84 11.4"
                 y="0"
                 sodipodi:role="line"
                 id="tspan218">−15</tspan></text>
</g><path
             d="m 582.5,2449.17 34.168,0"
             style="fill:none;stroke:#000000;stroke-opacity:1;stroke-width:5;stroke-linecap:butt;stroke-linejoin:round;stroke-miterlimit:10;stroke-dasharray:none"
             id="path220" /><path
             d="m 4054.17,2449.17 -35,0"
             style="fill:none;stroke:#000000;stroke-opacity:1;stroke-width:5;stroke-linecap:butt;stroke-linejoin:round;stroke-miterlimit:10;stroke-dasharray:none"
             id="path222" /><g
             id="g224"
             transform="scale(10,10)"><text
               transform="matrix(1,0,0,-1,38.4168,241.25)"
               id="text226"><tspan
                 style="fill:#000000;fill-opacity:1;fill-rule:nonzero;stroke:none;font-family:Helvetica;font-variant:normal;font-weight:normal;font-size:10;writing-mode:lr;-inkscape-font-specification:Helvetica"
                 x="0 5.84 11.4"
                 y="0"
                 sodipodi:role="line"
                 id="tspan228">−10</tspan></text>
</g><path
             d="m 582.5,2753.33 34.168,0"
             style="fill:none;stroke:#000000;stroke-opacity:1;stroke-width:5;stroke-linecap:butt;stroke-linejoin:round;stroke-miterlimit:10;stroke-dasharray:none"
             id="path230" /><path
             d="m 4054.17,2753.33 -35,0"
             style="fill:none;stroke:#000000;stroke-opacity:1;stroke-width:5;stroke-linecap:butt;stroke-linejoin:round;stroke-miterlimit:10;stroke-dasharray:none"
             id="path232" /><g
             id="g234"
             transform="scale(10,10)"><text
               transform="matrix(1,0,0,-1,44,271.667)"
               id="text236"><tspan
                 style="fill:#000000;fill-opacity:1;fill-rule:nonzero;stroke:none;font-family:Helvetica;font-variant:normal;font-weight:normal;font-size:10;writing-mode:lr;-inkscape-font-specification:Helvetica"
                 x="0 5.84"
                 y="0"
                 sodipodi:role="line"
                 id="tspan238">−5</tspan></text>
</g><path
             d="m 582.5,3057.5 34.168,0"
             style="fill:none;stroke:#000000;stroke-opacity:1;stroke-width:5;stroke-linecap:butt;stroke-linejoin:round;stroke-miterlimit:10;stroke-dasharray:none"
             id="path240" /><path
             d="m 4054.17,3057.5 -35,0"
             style="fill:none;stroke:#000000;stroke-opacity:1;stroke-width:5;stroke-linecap:butt;stroke-linejoin:round;stroke-miterlimit:10;stroke-dasharray:none"
             id="path242" /><g
             id="g244"
             transform="scale(10,10)"><text
               transform="matrix(1,0,0,-1,49.8332,302.083)"
               id="text246"><tspan
                 style="fill:#000000;fill-opacity:1;fill-rule:nonzero;stroke:none;font-family:Helvetica;font-variant:normal;font-weight:normal;font-size:10;writing-mode:lr;-inkscape-font-specification:Helvetica"
                 x="0"
                 y="0"
                 id="tspan248">0</tspan></text>
</g><path
             d="m 582.5,379.168 3471.67,0"
             style="fill:none;stroke:#000000;stroke-opacity:1;stroke-width:5;stroke-linecap:butt;stroke-linejoin:round;stroke-miterlimit:10;stroke-dasharray:none"
             id="path250" /><path
             d="m 582.5,3118.33 3471.67,0"
             style="fill:none;stroke:#000000;stroke-opacity:1;stroke-width:5;stroke-linecap:butt;stroke-linejoin:round;stroke-miterlimit:10;stroke-dasharray:none"
             id="path252" /><path
             d="m 582.5,379.168 0,2739.162"
             style="fill:none;stroke:#000000;stroke-opacity:1;stroke-width:5;stroke-linecap:butt;stroke-linejoin:round;stroke-miterlimit:10;stroke-dasharray:none"
             id="path254" /><path
             d="m 4054.17,379.168 0,2739.162"
             style="fill:none;stroke:#000000;stroke-opacity:1;stroke-width:5;stroke-linecap:butt;stroke-linejoin:round;stroke-miterlimit:10;stroke-dasharray:none"
             id="path256" /></g></g><g
         id="g258"><g
           id="g260"
           clip-path="url(#clipPath262)"><path
             d="m 2907.5,2865.83 1.67,-1.66 1.66,-1.67 2.5,-2.5 1.67,-1.67 1.67,-1.66 1.66,-2.5 2.5,-1.67 1.67,-1.67 1.67,-2.5 2.5,-1.66 1.66,-2.5 1.67,-1.67 2.5,-1.67 1.67,-2.5 1.66,-1.66 2.5,-2.5 1.67,-1.67 1.67,-2.5 2.5,-1.67 1.66,-2.5 1.67,-1.66 2.5,-2.5 1.67,-1.67 1.66,-2.5 2.5,-2.5 1.67,-1.67 1.67,-2.5 2.5,-1.66 1.66,-2.5 1.67,-2.5 2.5,-1.67 1.67,-2.5 1.66,-2.5 2.5,-1.67 1.67,-2.5 1.67,-2.5 2.5,-1.66 1.66,-2.5 1.67,-2.5 2.5,-2.5 1.67,-1.67 1.66,-2.5 2.5,-2.5 1.67,-2.5 1.67,-2.5 2.5,-1.67 1.66,-2.5 1.67,-2.5 2.5,-2.5 1.67,-2.5 1.66,-2.5 1.67,-2.5 2.5,-1.66 1.67,-2.5 1.66,-2.5 2.5,-2.5 1.67,-2.5 1.67,-2.5 2.5,-2.5 1.66,-2.5 1.67,-2.5 2.5,-2.5 1.67,-2.5 1.66,-2.5 2.5,-2.5 1.67,-2.5 1.67,-2.5 2.5,-2.5 1.66,-2.5 1.67,-2.5 2.5,-3.34 1.67,-2.5 1.66,-2.5 2.5,-2.5 1.67,-2.5 1.67,-2.5 2.5,-2.5 1.66,-3.33 1.67,-2.5 2.5,-2.5 1.67,-2.5 1.66,-2.5 2.5,-3.33 1.67,-2.5 1.67,-2.5 2.5,-2.5 1.66,-3.34 1.67,-2.5 2.5,-2.5 1.67,-3.33 1.66,-2.5 2.5,-2.5 1.67,-3.33 1.67,-2.5 1.66,-2.5 2.5,-3.34 1.67,-2.5 1.67,-3.33 2.5,-2.5 1.66,-2.5 1.67,-3.33 2.5,-2.5 1.67,-3.34 1.66,-2.5 2.5,-3.33 1.67,-2.5 1.67,-3.33 2.5,-2.5 1.66,-3.34 1.67,-2.5 2.5,-3.33 1.67,-3.33 1.66,-2.5 2.5,-3.34 1.67,-2.5 1.67,-3.33 2.5,-3.33 1.66,-2.5 1.67,-3.34 2.5,-3.33 1.67,-2.5 1.66,-3.33 2.5,-3.34 1.67,-2.5 1.67,-3.33 2.5,-3.33 1.66,-3.34 1.67,-2.5 2.5,-3.33 1.67,-3.33 1.66,-3.34 2.5,-2.5 1.67,-3.33 1.67,-3.33 2.5,-3.34 1.66,-3.33 1.67,-3.33 2.5,-2.5 1.67,-3.34 1.66,-3.33 1.67,-3.33 2.5,-3.34 1.67,-3.33 1.66,-3.33 2.5,-3.34 1.67,-3.33 1.67,-3.33 2.5,-3.34 1.66,-3.33 1.67,-3.33 2.5,-3.34 1.67,-3.33 1.66,-3.33 2.5,-3.34 1.67,-3.33 1.67,-3.33 2.5,-3.34 1.66,-3.33 1.67,-3.33 2.5,-4.17 1.67,-3.33 1.66,-3.34 2.5,-3.33 1.67,-3.33 1.67,-3.34 2.5,-3.33 1.66,-4.17 1.67,-3.33 2.5,-3.33 1.67,-3.34 1.66,-4.16 2.5,-3.34 1.67,-3.33 1.67,-3.33 2.5,-4.17 1.66,-3.33 1.67,-3.34 2.5,-4.16 1.67,-3.34 1.66,-3.33 2.5,-4.17 1.67,-3.33 1.67,-3.33 2.5,-4.17 1.66,-3.33 1.67,-4.17 1.67,-3.33 2.5,-4.17 1.66,-3.33 1.67,-3.34 2.5,-4.16 1.67,-3.34 1.66,-4.16 2.5,-3.34 1.67,-4.16 1.67,-3.34 2.5,-4.16 1.66,-4.17 1.67,-3.33 2.5,-4.17 1.67,-3.33 1.66,-4.17 2.5,-4.17 1.67,-3.33 1.67,-4.17 2.5,-3.33 1.66,-4.17 1.67,-4.16 2.5,-3.34 1.67,-4.16 1.66,-4.17 2.5,-4.17 1.67,-3.33 1.67,-4.17 2.5,-4.16 1.66,-4.17 1.67,-3.33 2.5,-4.17 1.67,-4.17 1.66,-4.16 2.5,-3.34 1.67,-4.16 1.67,-4.17 2.5,-4.17 1.66,-4.16 1.67,-4.17 2.5,-4.17 1.67,-4.16 1.66,-3.34 2.5,-4.16 1.67,-4.17 1.67,-4.17 1.66,-4.16 2.5,-4.17 1.67,-4.17 1.67,-4.16 2.5,-4.17 1.66,-4.17 1.67,-4.16 2.5,-4.17 1.67,-4.17 1.66,-4.16 2.5,-4.17 1.67,-4.17 1.67,-5 2.5,-4.16 1.66,-4.17 1.67,-4.17 2.5,-4.16 1.67,-4.17 1.66,-4.17 2.5,-5 1.67,-4.16 1.67,-4.17 2.5,-4.17 1.66,-4.16 1.67,-5 2.5,-4.17 1.67,-4.17 1.66,-4.16 2.5,-5 1.67,-4.17 1.67,-4.17 2.5,-4.16 1.66,-5 1.67,-4.17 2.5,-4.17 1.67,-5 1.66,-4.16 2.5,-5 1.67,-4.17 1.67,-4.17 2.5,-5 1.66,-4.16 1.67,-5 2.5,-4.17 1.67,-5 1.66,-4.17 1.67,-5 2.5,-4.16 1.67,-5 1.66,-4.17 2.5,-5 1.67,-4.17 1.67,-5 2.5,-4.16 1.66,-5 1.67,-4.17 2.5,-5 1.67,-5 1.66,-4.17 2.5,-5 1.67,-4.16 1.67,-5 2.5,-5 1.66,-4.17 1.67,-5 2.5,-5 1.67,-5"
             style="fill:none;stroke:#0000ff;stroke-opacity:1;stroke-width:20;stroke-linecap:butt;stroke-linejoin:round;stroke-miterlimit:10;stroke-dasharray:none"
             id="path266" /><path
             d="m 2327.5,3011.67 1.67,0.83 2.5,0.83 1.66,0.84 1.67,0.83 2.5,0.83 1.67,0.84 1.66,1.66 2.5,0.84 1.67,0.83 1.67,0.83 2.5,0.84 1.66,0.83 1.67,0.83 2.5,0.84 1.67,0.83 1.66,0 2.5,0.83 1.67,0.84 1.67,0.83 2.5,0.83 1.66,0.84 1.67,0.83 2.5,0.83 1.67,0.84 1.66,0.83 2.5,0 1.67,0.83 1.67,0.84 2.5,0.83 1.66,0.83 1.67,0 1.67,0.84 2.5,0.83 1.66,0.83 1.67,0 2.5,0.84 1.67,0.83 1.66,0 2.5,0.83 1.67,0.84 1.67,0.83 2.5,0 1.66,0.83 1.67,0 2.5,0.84 1.67,0.83 1.66,0 2.5,0.83 1.67,0 1.67,0.84 2.5,0.83 1.66,0 1.67,0.83 2.5,0 1.67,0.84 1.66,0 2.5,0.83 3.34,0 2.5,0.83 1.66,0 1.67,0.84 2.5,0 1.67,0.83 4.16,0 1.67,0.83 4.17,0 1.66,0.84 4.17,0 1.67,0.83 4.16,0 1.67,0.83 7.5,0 1.67,0.84 8.33,0 1.67,0.83 48.33,0 2.5,-0.83 7.5,0 1.67,-0.84 8.33,0 1.67,-0.83 3.33,0 2.5,-0.83 3.33,0 2.5,-0.84 3.34,0 2.5,-0.83 3.33,0 2.5,-0.83 1.67,0 1.66,-0.84 2.5,0 1.67,-0.83 4.17,0 1.66,-0.83 1.67,0 2.5,-0.84 1.67,0 1.66,-0.83 2.5,0 1.67,-0.83 1.67,-0.84 2.5,0 1.66,-0.83 1.67,0 2.5,-0.83 1.67,-0.84 1.66,0 2.5,-0.83 1.67,0 1.67,-0.83 2.5,-0.84 1.66,-0.83 1.67,0 2.5,-0.83 1.67,-0.84 1.66,0 2.5,-0.83 1.67,-0.83 1.67,-0.84 1.66,0 2.5,-0.83 1.67,-0.83 1.67,-0.84 2.5,-0.83 1.66,0 1.67,-0.83 2.5,-0.84 1.67,-0.83 1.66,-0.83 2.5,-0.84 1.67,-0.83 1.67,-0.83 2.5,-0.84 1.66,-0.83 1.67,0 2.5,-0.83 1.67,-0.84 1.66,-0.83 2.5,-0.83 1.67,-0.84 1.67,-0.83 2.5,-0.83 1.66,-0.84 1.67,-1.66 2.5,-0.84 1.67,-0.83 1.66,-0.83 2.5,-0.84 1.67,-0.83 1.67,-0.83 2.5,-0.84 1.66,-0.83 1.67,-1.67 2.5,-0.83 1.67,-0.83 1.66,-0.84 2.5,-0.83 1.67,-0.83 1.67,-1.67 2.5,-0.83 1.66,-0.84 1.67,-0.83 2.5,-1.67 1.67,-0.83 1.66,-0.83 1.67,-1.67 2.5,-0.83 1.67,-0.84 1.66,-1.66 2.5,-0.84 1.67,-0.83 1.67,-1.67 2.5,-0.83 1.66,-0.83 1.67,-1.67 2.5,-0.83 1.67,-1.67 1.66,-0.83 2.5,-1.67 1.67,-0.83 1.67,-1.67 2.5,-0.83 1.66,-1.67 1.67,-0.83 2.5,-1.67 1.67,-0.83 1.66,-1.67 2.5,-0.83 1.67,-1.67 1.67,-0.83 2.5,-1.67 1.66,-1.67 1.67,-0.83 2.5,-1.67 1.67,-0.83 1.66,-1.67 2.5,-1.66 1.67,-0.84 1.67,-1.66 2.5,-1.67 1.66,-0.83 1.67,-1.67 2.5,-1.67 1.67,-1.66 1.66,-0.84 2.5,-1.66 1.67,-1.67 1.67,-1.67 2.5,-1.66 1.66,-0.84 1.67,-1.66 1.67,-1.67 2.5,-1.67 1.66,-1.66 1.67,-1.67 2.5,-0.83 1.67,-1.67 1.66,-1.67 2.5,-1.66 1.67,-1.67 1.67,-1.67 2.5,-1.66 1.66,-1.67 1.67,-1.67 2.5,-1.66 1.67,-1.67 1.66,-1.67 2.5,-1.66 1.67,-1.67 1.67,-1.67 2.5,-1.66 1.66,-1.67 1.67,-1.67 2.5,-1.66 1.67,-1.67 1.66,-1.67 2.5,-2.5 1.67,-1.66 1.67,-1.67 2.5,-1.67 1.66,-1.66 1.67,-1.67 2.5,-1.67 1.67,-2.5 1.66,-1.66 2.5,-1.67 1.67,-1.67 1.67,-2.5 2.5,-1.66 1.66,-1.67 1.67,-1.67 2.5,-2.5"
             style="fill:none;stroke:#0000ff;stroke-opacity:1;stroke-width:20;stroke-linecap:butt;stroke-linejoin:round;stroke-miterlimit:10;stroke-dasharray:none"
             id="path268" /><path
             d="m 1748.33,2304.17 1.67,4.16 1.67,3.34 2.5,4.16 1.66,3.34 1.67,4.16 2.5,3.34 1.67,4.16 1.66,3.34 2.5,3.33 1.67,4.17 1.67,3.33 1.66,4.17 2.5,3.33 1.67,4.17 1.67,3.33 2.5,3.33 1.66,4.17 1.67,3.33 2.5,3.34 1.67,4.16 1.66,3.34 2.5,3.33 1.67,4.17 1.67,3.33 2.5,3.33 1.66,3.34 1.67,4.16 2.5,3.34 1.67,3.33 1.66,3.33 2.5,4.17 1.67,3.33 1.67,3.34 2.5,3.33 1.66,3.33 1.67,3.34 2.5,3.33 1.67,4.17 1.66,3.33 2.5,3.33 1.67,3.34 1.67,3.33 2.5,3.33 1.66,3.34 1.67,3.33 2.5,3.33 1.67,3.34 1.66,3.33 2.5,3.33 1.67,3.34 1.67,3.33 2.5,3.33 1.66,3.34 1.67,3.33 2.5,3.33 1.67,3.34 1.66,3.33 1.67,3.33 2.5,3.34 1.67,2.5 1.66,3.33 2.5,3.33 1.67,3.34 1.67,3.33 2.5,3.33 1.66,2.5 1.67,3.34 2.5,3.33 1.67,3.33 1.66,2.5 2.5,3.34 1.67,3.33 1.67,3.33 2.5,2.5 1.66,3.34 1.67,3.33 2.5,2.5 1.67,3.33 1.66,3.34 2.5,2.5 1.67,3.33 1.67,3.33 2.5,2.5 1.66,3.34 1.67,2.5 2.5,3.33 1.67,3.33 1.66,2.5 2.5,3.34 1.67,2.5 1.67,3.33 2.5,2.5 1.66,3.33 1.67,2.5 2.5,3.34 1.67,2.5 1.66,3.33 2.5,2.5 1.67,2.5 1.67,3.33 2.5,2.5 1.66,3.34 1.67,2.5 1.67,2.5 2.5,3.33 1.66,2.5 1.67,2.5 2.5,3.33 1.67,2.5 1.66,2.5 2.5,3.34 1.67,2.5 1.67,2.5 2.5,2.5 1.66,3.33 1.67,2.5 2.5,2.5 1.67,2.5 1.66,2.5 2.5,3.33 1.67,2.5 1.67,2.5 2.5,2.5 1.66,2.5 1.67,2.5 2.5,3.34 1.67,2.5 1.66,2.5 2.5,2.5 1.67,2.5 1.67,2.5 2.5,2.5 1.66,2.5 1.67,2.5 2.5,2.5 1.67,2.5 1.66,2.5 2.5,2.5 1.67,2.5 1.67,2.5 2.5,2.5 1.66,2.5 1.67,2.5 2.5,2.5 1.67,1.66 1.66,2.5 2.5,2.5 1.67,2.5 1.67,2.5 1.66,2.5 2.5,2.5 1.67,1.67 1.67,2.5 2.5,2.5 1.66,2.5 1.67,2.5 2.5,1.67 1.67,2.5 1.66,2.5 2.5,2.5 1.67,1.66 1.67,2.5 2.5,2.5 1.66,1.67 1.67,2.5 2.5,2.5 1.67,1.67 1.66,2.5 2.5,2.5 1.67,1.66 1.67,2.5 2.5,1.67 1.66,2.5 1.67,2.5 2.5,1.67 1.67,2.5 1.66,1.66 2.5,2.5 1.67,1.67 1.67,2.5 2.5,1.67 1.66,2.5 1.67,1.66 2.5,2.5 1.67,1.67 1.66,1.67 2.5,2.5 1.67,1.66 1.67,2.5 2.5,1.67 1.66,1.67 1.67,2.5 2.5,1.66 1.67,1.67 1.66,2.5 1.67,1.67 2.5,1.66 1.67,2.5 1.66,1.67 2.5,1.67 1.67,1.66 1.67,2.5 2.5,1.67 1.66,1.67 1.67,1.66 2.5,2.5 1.67,1.67 1.66,1.67 2.5,1.66 1.67,1.67 1.67,1.67 2.5,1.66 1.66,2.5 1.67,1.67 2.5,1.67 1.67,1.66 1.66,1.67 2.5,1.67 1.67,1.66 1.67,1.67 2.5,1.67 1.66,1.66 1.67,1.67 2.5,1.67 1.67,1.66 1.66,1.67 2.5,1.67 1.67,1.66 1.67,1.67 2.5,1.67 1.66,1.66 1.67,1.67 2.5,1.67 1.67,0.83 1.66,1.67 2.5,1.66 1.67,1.67 1.67,1.67 1.66,1.66 2.5,0.84 1.67,1.66 1.67,1.67 2.5,1.67 1.66,1.66 1.67,0.84 2.5,1.66 1.67,1.67 1.66,1.67 2.5,0.83 1.67,1.67 1.67,1.66 2.5,0.84 1.66,1.66 1.67,1.67 2.5,0.83 1.67,1.67 1.66,0.83 2.5,1.67 1.67,1.67 1.67,0.83 2.5,1.67 1.66,0.83 1.67,1.67 2.5,0.83 1.67,1.67 1.66,0.83 2.5,1.67 1.67,0.83 1.67,1.67 2.5,0.83 1.66,1.67 1.67,0.83 2.5,1.67 1.67,0.83 1.66,1.67 2.5,0.83 1.67,0.83 1.67,1.67 2.5,0.83 1.66,0.84 1.67,1.66 2.5,0.84 1.67,0.83 1.66,1.67 1.67,0.83 2.5,0.83 1.67,1.67 1.66,0.83 2.5,0.84 1.67,0.83 1.67,1.67 2.5,0.83 1.66,0.83 1.67,0.84 2.5,0.83 1.67,0.83 1.66,1.67 2.5,0.83 1.67,0.84"
             style="fill:none;stroke:#0000ff;stroke-opacity:1;stroke-width:20;stroke-linecap:butt;stroke-linejoin:round;stroke-miterlimit:10;stroke-dasharray:none"
             id="path270" /><path
             d="m 1550,1867.5 2.5,5 1.67,5 1.66,5 2.5,4.17 1.67,5 1.67,5 2.5,4.16 1.66,5 1.67,4.17 2.5,5 1.67,5 1.66,4.17 2.5,5 1.67,4.16 1.67,5 2.5,4.17 1.66,5 1.67,4.17 2.5,5 1.67,4.16 1.66,5 2.5,4.17 1.67,5 1.67,4.17 1.66,5 2.5,4.16 1.67,5 1.67,4.17 2.5,4.17 1.66,5 1.67,4.16 2.5,4.17 1.67,5 1.66,4.17 2.5,4.16 1.67,5 1.67,4.17 2.5,4.17 1.66,5 1.67,4.16 2.5,4.17 1.67,4.17 1.66,5 2.5,4.16 1.67,4.17 1.67,4.17 2.5,4.16 1.66,5 1.67,4.17 2.5,4.17 1.67,4.16 1.66,4.17 2.5,4.17 1.67,4.16 1.67,5 2.5,4.17 1.66,4.17 1.67,4.16 2.5,4.17 1.67,4.17 1.66,4.16 2.5,4.17 1.67,4.17 1.67,4.16 2.5,4.17 1.66,4.17 1.67,4.16 2.5,4.17 1.67,4.17 1.66,4.16 1.67,3.34 2.5,4.16 1.67,4.17 1.66,4.17 2.5,4.16 1.67,4.17 1.67,4.17 2.5,3.33 1.66,4.17 1.67,4.16 2.5,4.17 1.67,4.17 1.66,3.33 2.5,4.17 1.67,4.16 1.67,4.17 2.5,3.33 1.66,4.17 1.67,4.17 2.5,4.16 1.67,3.34 1.66,4.16 2.5,4.17 1.67,3.33 1.67,4.17 2.5,3.33 1.66,4.17 1.67,4.17 2.5,3.33 1.67,4.17 1.66,3.33 2.5,4.17"
             style="fill:none;stroke:#0000ff;stroke-opacity:1;stroke-width:20;stroke-linecap:butt;stroke-linejoin:round;stroke-miterlimit:10;stroke-dasharray:none"
             id="path272" /><path
             d="m 3391.67,2090.83 1.66,-5 1.67,-4.16 2.5,-4.17 1.67,-4.17 1.66,-4.16 2.5,-5 1.67,-4.17 1.67,-4.17 2.5,-4.16 1.66,-5 1.67,-4.17 2.5,-4.17 1.67,-4.16 1.66,-5 2.5,-4.17 1.67,-4.17 1.67,-5 2.5,-4.16 1.66,-4.17 1.67,-5 2.5,-4.17 1.67,-5 1.66,-4.16 1.67,-4.17 2.5,-5 1.67,-4.17 1.66,-5 2.5,-4.16 1.67,-5 1.67,-4.17 2.5,-5 1.66,-4.17 1.67,-5 2.5,-4.16 1.67,-5 1.66,-4.17 2.5,-5 1.67,-4.17 1.67,-5 2.5,-5 1.66,-4.16 1.67,-5 2.5,-5 1.67,-4.17 1.66,-5 2.5,-5 1.67,-4.17 1.67,-5 2.5,-5 1.66,-4.16 1.67,-5 2.5,-5 1.67,-5 1.66,-4.17 2.5,-5 1.67,-5 1.67,-5 2.5,-5 1.66,-4.17 1.67,-5 2.5,-5 1.67,-5 1.66,-5 1.67,-5 2.5,-5 1.67,-4.16 1.66,-5 2.5,-5 1.67,-5 1.67,-5 2.5,-5 1.66,-5 1.67,-5 2.5,-5 1.67,-5 1.66,-5 2.5,-5 1.67,-5 1.67,-5 2.5,-5 1.66,-5 1.67,-5 2.5,-5.84 1.67,-5 1.66,-5 2.5,-5 1.67,-5 1.67,-5 2.5,-5 1.66,-5.83 1.67,-5 2.5,-5 1.67,-5 1.66,-5 2.5,-5.83 1.67,-5 1.67,-5 2.5,-5 1.66,-5.84 1.67,-5 2.5,-5 1.67,-5.83 1.66,-5 1.67,-5 2.5,-5.83 1.67,-5 1.66,-5 2.5,-5.84 1.67,-5 1.67,-5.83 2.5,-5 1.66,-5 1.67,-5.83 2.5,-5 1.67,-5.84 1.66,-5 2.5,-5.83 1.67,-5 1.67,-5.83 2.5,-5 1.66,-5.84 1.67,-5 2.5,-5.83 1.67,-5 1.66,-5.83 2.5,-5.84 1.67,-5 1.67,-5.83 2.5,-5.83 1.66,-5 1.67,-5.84 2.5,-5 1.67,-5.83 1.66,-5.83 2.5,-5.84 1.67,-5 1.67,-5.83 2.5,-5.83 1.66,-5 1.67,-5.84 2.5,-5.83 1.67,-5.83 1.66,-5.84 2.5,-5 1.67,-5.83 1.67,-5.83 1.66,-5.84 2.5,-5.83 1.67,-5.83 1.67,-5 2.5,-5.84 1.66,-5.83 1.67,-5.83 2.5,-5.84 1.67,-5.83 1.66,-5.83 2.5,-5.84 1.67,-5.83 1.67,-5.83 2.5,-5.84 1.66,-5.83 1.67,-5.83 2.5,-5.84 1.67,-5.83 1.66,-5.83 2.5,-5.84 1.67,-5.83 1.67,-5.83 2.5,-5.84 1.66,-5.83 1.67,-5.83 2.5,-6.67 1.67,-5.83 1.66,-5.84 2.5,-5.83 1.67,-5.83 1.67,-5.84 2.5,-6.66 1.66,-5.84 1.67,-5.83 2.5,-5.83 1.67,-5.84 1.66,-6.66 2.5,-5.84 1.67,-5.83 1.67,-6.67 1.66,-5.83 2.5,-5.83 1.67,-5.84 1.67,-6.66 2.5,-5.84 1.66,-5.83 1.67,-6.67 2.5,-5.83 1.67,-6.67 1.66,-5.83 2.5,-5.83 1.67,-6.67 1.67,-5.83 2.5,-6.67 1.66,-5.83 1.67,-6.67 2.5,-5.83 1.67,-6.67 1.66,-5.83 2.5,-6.67 1.67,-5.832 1.67,-6.668 2.5,-5.832 1.66,-6.668 1.67,-5.832 2.5,-6.668 1.67,-6.668 1.66,-5.832 2.5,-6.668 1.67,-5.832 1.67,-6.668 2.5,-6.664 1.66,-5.836 1.67,-6.664 2.5,-6.668 1.67,-5.832 1.66,-6.668 2.5,-6.668 1.67,-6.664 1.67,-5.836 1.66,-6.664 2.5,-6.668 1.67,-6.668 1.67,-5.832 2.5,-6.668 1.66,-6.664 1.67,-6.668 2.5,-6.668 1.67,-5.832 1.66,-6.668 2.5,-6.664 1.67,-6.668 1.67,-6.668 2.5,-6.664 1.66,-6.668 1.67,-6.668 2.5,-6.664 1.67,-6.668 1.66,-5.832 2.5,-6.668 1.67,-6.668 1.67,-6.664 2.5,-6.668 1.66,-6.668 1.67,-6.664 2.5,-6.668 1.67,-7.5 1.66,-6.668 2.5,-6.664 1.67,-6.668 1.67,-6.668 2.5,-6.664 1.66,-6.668 1.67,-6.668 2.5,-6.664 1.67,-6.668 1.66,-6.668 2.5,-7.5 1.67,-6.664 1.67,-6.668 2.5,-6.668 1.66,-6.664 1.67,-7.5 1.67,-6.668 2.5,-6.668 1.66,-6.664 1.67,-7.5 2.5,-6.668 1.67,-6.668 1.66,-6.664 2.5,-7.5 1.67,-6.668 1.67,-6.668 2.5,-7.5 1.66,-6.664 1.67,-6.668 2.5,-7.5 1.67,-6.668 1.66,-6.664 2.5,-7.5 1.67,-6.668 1.67,-7.5 2.5,-6.668 1.66,-6.664 1.67,-7.5 2.5,-6.668 1.67,-7.5 1.66,-6.668 2.5,-7.5 1.67,-6.664 1.67,-7.5 2.5,-6.668 1.66,-7.5"
             style="fill:none;stroke:#0000ff;stroke-opacity:1;stroke-width:5;stroke-linecap:butt;stroke-linejoin:round;stroke-miterlimit:10;stroke-dasharray:60;stroke-dashoffset:0"
             id="path274" /><path
             d="m 2811.67,2948.33 2.5,-1.66 1.66,-0.84 1.67,-1.66 2.5,-1.67 1.67,-1.67 1.66,-0.83 2.5,-1.67 1.67,-1.66 1.67,-1.67 2.5,-1.67 1.66,-1.66 1.67,-0.84 2.5,-1.66 1.67,-1.67 1.66,-1.67 2.5,-1.66 1.67,-1.67 1.67,-1.67 2.5,-1.66 1.66,-1.67 1.67,-1.67 2.5,-1.66 1.67,-1.67 1.66,-1.67 2.5,-1.66 1.67,-1.67 1.67,-1.67 2.5,-1.66 1.66,-1.67 1.67,-1.67 2.5,-1.66 1.67,-1.67 1.66,-1.67 1.67,-1.66 2.5,-2.5 1.67,-1.67 1.66,-1.67 2.5,-1.66 1.67,-1.67 1.67,-1.67 2.5,-2.5 1.66,-1.66 1.67,-1.67 2.5,-1.67 1.67,-1.66 1.66,-2.5 2.5,-1.67 1.67,-1.67 1.67,-1.66 2.5,-2.5 1.66,-1.67 1.67,-1.67 2.5,-2.5 1.67,-1.66 1.66,-1.67 2.5,-2.5 1.67,-1.67 1.67,-2.5 2.5,-1.66 1.66,-1.67 1.67,-2.5 2.5,-1.67 1.67,-2.5 1.66,-1.66 2.5,-2.5 1.67,-1.67 1.67,-2.5 2.5,-1.67 1.66,-2.5 1.67,-1.66 2.5,-2.5 1.67,-1.67 1.66,-2.5 2.5,-1.67 1.67,-2.5 1.67,-2.5 1.66,-1.66 2.5,-2.5 1.67,-1.67 1.67,-2.5 2.5,-2.5 1.66,-1.67 1.67,-2.5 2.5,-2.5 1.67,-2.5 1.66,-1.66 2.5,-2.5 1.67,-2.5 1.67,-1.67 2.5,-2.5 1.66,-2.5 1.67,-2.5 2.5,-2.5 1.67,-1.67 1.66,-2.5 2.5,-2.5 1.67,-2.5 1.67,-2.5 2.5,-2.5 1.66,-1.66 1.67,-2.5 2.5,-2.5 1.67,-2.5 1.66,-2.5 2.5,-2.5 1.67,-2.5 1.67,-2.5 2.5,-2.5 1.66,-2.5 1.67,-2.5 2.5,-2.5 1.67,-2.5 1.66,-2.5 2.5,-2.5 1.67,-2.5 1.67,-2.5 1.66,-2.5 2.5,-2.5 1.67,-2.5 1.67,-2.5 2.5,-2.5 1.66,-2.5 1.67,-3.34 2.5,-2.5 1.67,-2.5 1.66,-2.5 2.5,-2.5 1.67,-2.5 1.67,-3.33 2.5,-2.5 1.66,-2.5 1.67,-2.5 2.5,-3.33 1.67,-2.5 1.66,-2.5 2.5,-2.5 1.67,-3.34 1.67,-2.5 2.5,-2.5 1.66,-3.33 1.67,-2.5 2.5,-2.5 1.67,-3.33 1.66,-2.5 2.5,-2.5 1.67,-3.34 1.67,-2.5 2.5,-3.33 1.66,-2.5 1.67,-3.33 2.5,-2.5 1.67,-2.5 1.66,-3.34 2.5,-2.5 1.67,-3.33 1.67,-2.5 1.66,-3.33 2.5,-3.34 1.67,-2.5 1.67,-3.33 2.5,-2.5 1.66,-3.33 1.67,-2.5 2.5,-3.34 1.67,-3.33 1.66,-2.5 2.5,-3.33 1.67,-3.34 1.67,-2.5 2.5,-3.33 1.66,-3.33 1.67,-2.5 2.5,-3.34 1.67,-3.33 1.66,-2.5 2.5,-3.33 1.67,-3.34 1.67,-3.33 2.5,-2.5 1.66,-3.33 1.67,-3.34 2.5,-3.33 1.67,-3.33 1.66,-2.5 2.5,-3.34 1.67,-3.33 1.67,-3.33 2.5,-3.34 1.66,-3.33 1.67,-3.33 2.5,-3.34 1.67,-3.33 1.66,-2.5 2.5,-3.33 1.67,-3.34 1.67,-3.33 2.5,-3.33 1.66,-3.34 1.67,-3.33 1.67,-3.33 2.5,-3.34 1.66,-3.33 1.67,-3.33 2.5,-4.17 1.67,-3.33 1.66,-3.34 2.5,-3.33 1.67,-3.33 1.67,-3.34 2.5,-3.33 1.66,-3.33 1.67,-3.34 2.5,-4.16 1.67,-3.34 1.66,-3.33 2.5,-3.33 1.67,-3.34 1.67,-4.16 2.5,-3.34 1.66,-3.33 1.67,-3.33 2.5,-4.17 1.67,-3.33 1.66,-3.34 2.5,-3.33 1.67,-4.17 1.67,-3.33 2.5,-3.33 1.66,-4.17 1.67,-3.33 2.5,-3.34 1.67,-4.16 1.66,-3.34 2.5,-4.16 1.67,-3.34 1.67,-4.16 2.5,-3.34 1.66,-3.33 1.67,-4.17 1.67,-3.33 2.5,-4.17 1.66,-3.33 1.67,-4.17 2.5,-3.33 1.67,-4.17 1.66,-3.33 2.5,-4.17 1.67,-4.16 1.67,-3.34 2.5,-4.16 1.66,-3.34 1.67,-4.16 2.5,-4.17 1.67,-3.33 1.66,-4.17 2.5,-3.33 1.67,-4.17 1.67,-4.17 2.5,-3.33 1.66,-4.17 1.67,-4.16 2.5,-4.17 1.67,-3.33 1.66,-4.17 2.5,-4.17 1.67,-4.16 1.67,-3.34 2.5,-4.16 1.66,-4.17 1.67,-4.17 2.5,-4.16 1.67,-3.34 1.66,-4.16 2.5,-4.17 1.67,-4.17 1.67,-4.16 2.5,-4.17 1.66,-4.17 1.67,-4.16 1.67,-4.17 2.5,-4.17 1.66,-3.33 1.67,-4.17 2.5,-4.16 1.67,-4.17 1.66,-4.17 2.5,-4.16 1.67,-4.17 1.67,-4.17 2.5,-5 1.66,-4.16 1.67,-4.17 2.5,-4.17 1.67,-4.16 1.66,-4.17 2.5,-4.17 1.67,-4.16 1.67,-4.17 2.5,-4.17"
             style="fill:none;stroke:#0000ff;stroke-opacity:1;stroke-width:5;stroke-linecap:butt;stroke-linejoin:round;stroke-miterlimit:10;stroke-dasharray:60;stroke-dashoffset:0"
             id="path276" /><path
             d="m 2232.5,2954.17 2.5,1.66 1.67,0.84 1.66,1.66 1.67,1.67 2.5,0.83 1.67,1.67 1.66,1.67 2.5,0.83 1.67,1.67 1.67,0.83 2.5,1.67 1.66,0.83 1.67,1.67 2.5,1.66 1.67,0.84 1.66,1.66 2.5,0.84 1.67,1.66 1.67,0.84 2.5,0.83 1.66,1.67 1.67,0.83 2.5,1.67 1.67,0.83 1.66,1.67 2.5,0.83 1.67,0.83 1.67,1.67 2.5,0.83 1.66,0.84 1.67,1.66 2.5,0.84 1.67,0.83 1.66,1.67 2.5,0.83 1.67,0.83 1.67,1.67 2.5,0.83 1.66,0.84 1.67,0.83 2.5,1.67 1.67,0.83 1.66,0.83 2.5,0.84 1.67,0.83 1.67,1.67 1.66,0.83 2.5,0.83 1.67,0.84 1.67,0.83 2.5,0.83 1.66,0.84 1.67,0.83 2.5,0.83 1.67,0.84 1.66,1.66 2.5,0.84 1.67,0.83 1.67,0.83 2.5,0.84 1.66,0.83 1.67,0.83 2.5,0.84 1.67,0.83 1.66,0.83 2.5,0 1.67,0.84 1.67,0.83 2.5,0.83 1.66,0.84 1.67,0.83 2.5,0.83 1.67,0.84 1.66,0.83 2.5,0 1.67,0.83 1.67,0.84 2.5,0.83 1.66,0.83 1.67,0 2.5,0.84 1.67,0.83 1.66,0.83 2.5,0 1.67,0.84 1.67,0.83 1.66,0 2.5,0.83 1.67,0.84 1.67,0.83 2.5,0 1.66,0.83 1.67,0 2.5,0.84 1.67,0.83 1.66,0 2.5,0.83 1.67,0 1.67,0.84 2.5,0.83 1.66,0 1.67,0.83 2.5,0 1.67,0.84 1.66,0 2.5,0.83 1.67,0 1.67,0.83 4.16,0 1.67,0.84 2.5,0 1.67,0.83 4.16,0 1.67,0.83 4.17,0 1.66,0.84 4.17,0 1.67,0.83 4.16,0 1.67,0.83 7.5,0 1.67,0.84 8.33,0 1.67,0.83 48.33,0 2.5,-0.83 7.5,0 1.67,-0.84 7.5,0 2.5,-0.83 3.33,0 2.5,-0.83 3.33,0 2.5,-0.84 3.34,0 2.5,-0.83 3.33,0 2.5,-0.83 1.67,0 1.66,-0.84 4.17,0 1.67,-0.83 2.5,0 1.66,-0.83 1.67,0 2.5,-0.84 1.67,0 1.66,-0.83 2.5,0 1.67,-0.83 1.67,-0.84 2.5,0 1.66,-0.83 1.67,0 2.5,-0.83 1.67,-0.84 1.66,0 2.5,-0.83 1.67,0 1.67,-0.83 2.5,-0.84 1.66,-0.83 1.67,0 1.67,-0.83 2.5,-0.84 1.66,0 1.67,-0.83 2.5,-0.83 1.67,-0.84 1.66,0 2.5,-0.83 1.67,-0.83 1.67,-0.84 2.5,-0.83 1.66,0 1.67,-0.83 2.5,-0.84 1.67,-0.83 1.66,-0.83 2.5,-0.84 1.67,-0.83 1.67,-0.83 2.5,-0.84 1.66,0 1.67,-0.83 2.5,-0.83 1.67,-0.84 1.66,-0.83 2.5,-0.83 1.67,-0.84 1.67,-0.83 2.5,-0.83 1.66,-0.84 1.67,-0.83 2.5,-1.67 1.67,-0.83 1.66,-0.83 2.5,-0.84 1.67,-0.83 1.67,-0.83 2.5,-0.84 1.66,-0.83 1.67,-0.83 1.67,-1.67 2.5,-0.83 1.66,-0.84 1.67,-0.83 2.5,-0.83 1.67,-1.67 1.66,-0.83 2.5,-0.84 1.67,-0.83 1.67,-1.67 2.5,-0.83 1.66,-0.83 1.67,-1.67 2.5,-0.83 1.67,-0.84 1.66,-1.66 2.5,-0.84 1.67,-0.83 1.67,-1.67 2.5,-0.83 1.66,-0.83 1.67,-1.67 2.5,-0.83 1.67,-1.67 1.66,-0.83 2.5,-1.67 1.67,-0.83 1.67,-0.84 2.5,-1.66 1.66,-0.84 1.67,-1.66 2.5,-0.84 1.67,-1.66 1.66,-1.67 2.5,-0.83 1.67,-1.67 1.67,-0.83 2.5,-1.67 1.66,-0.83 1.67,-1.67 2.5,-1.67 1.67,-0.83 1.66,-1.67 1.67,-1.66 2.5,-0.84 1.67,-1.66 1.66,-1.67 2.5,-0.83 1.67,-1.67 1.67,-1.67"
             style="fill:none;stroke:#0000ff;stroke-opacity:1;stroke-width:5;stroke-linecap:butt;stroke-linejoin:round;stroke-miterlimit:10;stroke-dasharray:60;stroke-dashoffset:0"
             id="path278" /><path
             d="m 1653.33,2107.5 1.67,4.17 2.5,4.16 1.67,4.17 1.66,4.17 2.5,4.16 1.67,5 1.67,4.17 2.5,4.17 1.66,4.16 1.67,4.17 2.5,4.17 1.67,4.16 1.66,3.34 2.5,4.16 1.67,4.17 1.67,4.17 1.66,4.16 2.5,4.17 1.67,4.17 1.67,4.16 2.5,4.17 1.66,4.17 1.67,3.33 2.5,4.17 1.67,4.16 1.66,4.17 2.5,4.17 1.67,4.16 1.67,3.34 2.5,4.16 1.66,4.17 1.67,4.17 2.5,3.33 1.67,4.17 1.66,4.16 2.5,4.17 1.67,3.33 1.67,4.17 2.5,4.17 1.66,3.33 1.67,4.17 2.5,3.33 1.67,4.17 1.66,4.16 2.5,3.34 1.67,4.16 1.67,3.34 2.5,4.16 1.66,4.17 1.67,3.33 2.5,4.17 1.67,3.33 1.66,4.17 2.5,3.33 1.67,4.17 1.67,3.33 1.66,4.17 2.5,3.33 1.67,3.34 1.67,4.16 2.5,3.34 1.66,4.16 1.67,3.34 2.5,3.33 1.67,4.17 1.66,3.33 2.5,4.17 1.67,3.33 1.67,3.33 2.5,4.17 1.66,3.33 1.67,3.34 2.5,3.33 1.67,4.17 1.66,3.33 2.5,3.33 1.67,3.34 1.67,4.16 2.5,3.34 1.66,3.33 1.67,3.33 2.5,3.34 1.67,4.16 1.66,3.34 2.5,3.33 1.67,3.33 1.67,3.34 2.5,3.33 1.66,3.33 1.67,3.34 2.5,3.33 1.67,4.17 1.66,3.33 2.5,3.33 1.67,3.34 1.67,3.33 2.5,3.33 1.66,3.34 1.67,3.33 1.67,3.33 2.5,3.34 1.66,3.33 1.67,2.5 2.5,3.33 1.67,3.34 1.66,3.33 2.5,3.33 1.67,3.34 1.67,3.33 2.5,3.33 1.66,3.34 1.67,2.5 2.5,3.33 1.67,3.33 1.66,3.34 2.5,3.33 1.67,2.5 1.67,3.33 2.5,3.34 1.66,3.33 1.67,2.5 2.5,3.33 1.67,3.34 1.66,2.5 2.5,3.33 1.67,3.33 1.67,2.5 2.5,3.34 1.66,3.33 1.67,2.5 2.5,3.33 1.67,3.34 1.66,2.5 2.5,3.33 1.67,2.5 1.67,3.33 2.5,2.5 1.66,3.34 1.67,3.33 1.67,2.5 2.5,3.33 1.66,2.5 1.67,3.34 2.5,2.5 1.67,2.5 1.66,3.33 2.5,2.5 1.67,3.33 1.67,2.5 2.5,3.34 1.66,2.5 1.67,2.5 2.5,3.33 1.67,2.5 1.66,2.5 2.5,3.33 1.67,2.5 1.67,2.5 2.5,3.34 1.66,2.5 1.67,2.5 2.5,2.5 1.67,3.33 1.66,2.5 2.5,2.5 1.67,2.5 1.67,3.33 2.5,2.5 1.66,2.5 1.67,2.5 2.5,2.5 1.67,2.5 1.66,3.34 2.5,2.5 1.67,2.5 1.67,2.5 2.5,2.5 1.66,2.5 1.67,2.5 1.67,2.5 2.5,2.5 1.66,2.5 1.67,2.5 2.5,2.5 1.67,2.5 1.66,2.5 2.5,2.5 1.67,2.5 1.67,2.5 2.5,2.5 1.66,2.5 1.67,2.5 2.5,2.5 1.67,2.5 1.66,2.5 2.5,1.66 1.67,2.5 1.67,2.5 2.5,2.5 1.66,2.5 1.67,2.5 2.5,1.67 1.67,2.5 1.66,2.5 2.5,2.5 1.67,2.5 1.67,1.67 2.5,2.5 1.66,2.5 1.67,2.5 2.5,1.66 1.67,2.5 1.66,2.5 2.5,1.67 1.67,2.5 1.67,2.5 2.5,1.67 1.66,2.5 1.67,1.66 2.5,2.5 1.67,2.5 1.66,1.67 1.67,2.5 2.5,1.67 1.67,2.5 1.66,1.66 2.5,2.5 1.67,1.67 1.67,2.5 2.5,1.67 1.66,2.5 1.67,1.66 2.5,2.5 1.67,1.67 1.66,2.5 2.5,1.67 1.67,1.66 1.67,2.5 2.5,1.67 1.66,2.5 1.67,1.67 2.5,1.66 1.67,2.5 1.66,1.67 2.5,1.67 1.67,2.5 1.67,1.66 2.5,1.67 1.66,1.67 1.67,2.5 2.5,1.66 1.67,1.67 1.66,1.67 2.5,1.66 1.67,2.5 1.67,1.67 2.5,1.67 1.66,1.66 1.67,1.67 2.5,1.67 1.67,2.5 1.66,1.66 1.67,1.67 2.5,1.67 1.67,1.66 1.66,1.67 2.5,1.67 1.67,1.66 1.67,1.67 2.5,1.67 1.66,1.66 1.67,1.67 2.5,1.67 1.67,1.66 1.66,1.67 2.5,1.67 1.67,1.66 1.67,1.67 2.5,1.67 1.66,1.66 1.67,1.67 2.5,1.67 1.67,1.66 1.66,0.84 2.5,1.66 1.67,1.67 1.67,1.67 2.5,1.66 1.66,1.67 1.67,0.83 2.5,1.67 1.67,1.67 1.66,1.66 2.5,0.84 1.67,1.66 1.67,1.67 2.5,1.67 1.66,0.83 1.67,1.67"
             style="fill:none;stroke:#0000ff;stroke-opacity:1;stroke-width:5;stroke-linecap:butt;stroke-linejoin:round;stroke-miterlimit:10;stroke-dasharray:60;stroke-dashoffset:0"
             id="path280" /><path
             d="m 1074.17,408.332 1.66,6.668 1.67,7.5 2.5,6.668 1.67,7.5 1.66,6.664 2.5,6.668 1.67,7.5 1.67,6.668 2.5,7.5 1.66,6.664 1.67,7.5 2.5,6.668 1.67,6.668 1.66,7.5 2.5,6.664 1.67,6.668 1.67,7.5 2.5,6.668 1.66,6.664 1.67,7.5 2.5,6.668 1.67,6.668 1.66,6.664 2.5,7.5 1.67,6.668 1.67,6.668 1.66,6.664 2.5,7.5 1.67,6.668 1.67,6.668 2.5,6.664 1.66,6.668 1.67,6.668 2.5,7.5 1.67,6.664 1.66,6.668 2.5,6.668 1.67,6.664 1.67,6.668 2.5,6.668 1.66,6.664 1.67,6.668 2.5,6.668 1.67,6.664 1.66,7.5 2.5,6.668 1.67,6.668 1.67,6.664 2.5,5.836 1.66,6.664 1.67,6.668 2.5,6.668 1.67,6.664 1.66,6.668 2.5,6.668 1.67,6.664 1.67,6.668 2.5,6.668 1.66,6.664 1.67,6.668 2.5,5.832 1.67,6.668 1.66,6.668 2.5,6.664 1.67,6.668 1.67,5.832 2.5,6.668 1.66,6.668 1.67,6.664 1.67,5.836 2.5,6.664 1.66,6.668 1.67,6.668 2.5,5.832 1.67,6.668 1.66,6.664 2.5,5.836 1.67,6.664 1.67,6.668 2.5,5.832 1.66,6.668 1.67,6.668 2.5,5.832 1.67,6.668 1.66,5.832 2.5,6.668 1.67,5.832 1.67,6.668 2.5,5.832 1.66,6.67 1.67,6.66 2.5,5.84 1.67,5.83 1.66,6.67 2.5,5.83 1.67,6.67 1.67,5.83 2.5,6.67 1.66,5.83 1.67,6.67 2.5,5.83 1.67,5.83 1.66,6.67 2.5,5.83 1.67,5.84 1.67,6.66 2.5,5.84 1.66,5.83 1.67,6.67 1.67,5.83 2.5,5.83 1.66,5.84 1.67,6.66 2.5,5.84 1.67,5.83 1.66,5.83 2.5,6.67 1.67,5.83 1.67,5.84 2.5,5.83 1.66,5.83 1.67,5.84 2.5,6.66 1.67,5.84 1.66,5.83 2.5,5.83 1.67,5.84 1.67,5.83 2.5,5.83 1.66,5.84 1.67,5.83 2.5,5.83 1.67,5.84 1.66,5.83 2.5,5.83 1.67,5.84 1.67,5.83 2.5,5.83 1.66,5.84 1.67,5.83 2.5,5.83 1.67,5.84 1.66,5.83 2.5,5.83 1.67,5.84 1.67,5.83 2.5,5 1.66,5.83 1.67,5.84 1.67,5.83 2.5,5.83 1.66,5.84 1.67,5 2.5,5.83 1.67,5.83 1.66,5.84 2.5,5 1.67,5.83 1.67,5.83 2.5,5.84 1.66,5 1.67,5.83 2.5,5.83 1.67,5 1.66,5.84 2.5,5.83 1.67,5 1.67,5.83 2.5,5 1.66,5.84 1.67,5.83 2.5,5 1.67,5.83 1.66,5 2.5,5.84 1.67,5 1.67,5.83 2.5,5 1.66,5.83 1.67,5 2.5,5.84 1.67,5 1.66,5.83 2.5,5 1.67,5.83 1.67,5 2.5,5 1.66,5.84 1.67,5 2.5,5 1.67,5.83 1.66,5 1.67,5 2.5,5.83 1.67,5 1.66,5 2.5,5.84 1.67,5 1.67,5 2.5,5 1.66,5.83 1.67,5 2.5,5 1.67,5 1.66,5 2.5,5.83 1.67,5 1.67,5 2.5,5 1.66,5 1.67,5 2.5,5.84 1.67,5 1.66,5 2.5,5 1.67,5 1.67,5 2.5,5 1.66,5 1.67,5 2.5,5 1.67,5 1.66,5 2.5,5 1.67,5 1.67,5 2.5,5 1.66,5 1.67,5 2.5,4.16 1.67,5 1.66,5 1.67,5 2.5,5 1.67,5 1.66,5 2.5,4.17 1.67,5 1.67,5 2.5,5 1.66,5 1.67,4.17 2.5,5 1.67,5 1.66,5 2.5,4.16 1.67,5 1.67,5 2.5,4.17 1.66,5 1.67,5 2.5,4.17 1.67,5 1.66,5 2.5,4.16 1.67,5 1.67,5 2.5,4.17 1.66,5 1.67,4.17 2.5,5 1.67,4.16 1.66,5 2.5,4.17 1.67,5 1.67,4.17 2.5,5 1.66,4.16 1.67,5 2.5,4.17 1.67,5 1.66,4.17 2.5,4.16 1.67,5 1.67,4.17 1.66,5 2.5,4.17 1.67,4.16 1.67,5 2.5,4.17 1.66,4.17 1.67,5 2.5,4.16 1.67,4.17 1.66,4.17 2.5,5 1.67,4.16 1.67,4.17 2.5,4.17 1.66,5 1.67,4.16 2.5,4.17 1.67,4.17 1.66,4.16 2.5,5 1.67,4.17 1.67,4.17 2.5,4.16 1.66,4.17"
             style="fill:none;stroke:#0000ff;stroke-opacity:1;stroke-width:5;stroke-linecap:butt;stroke-linejoin:round;stroke-miterlimit:10;stroke-dasharray:60;stroke-dashoffset:0"
             id="path282" /><path
             d="m 1065.83,380 2.5,6.668 1.67,7.5 1.67,6.664 2.5,7.5"
             style="fill:none;stroke:#0000ff;stroke-opacity:1;stroke-width:5;stroke-linecap:butt;stroke-linejoin:round;stroke-miterlimit:10;stroke-dasharray:60;stroke-dashoffset:0"
             id="path284" /></g></g><g
         id="g286"><g
           id="g288"
           clip-path="url(#clipPath290)"><g
             id="g294"
             transform="scale(10,10)"><text
               transform="matrix(1,0,0,-1,185.167,12.4168)"
               id="text296"><tspan
                 style="fill:#000000;fill-opacity:1;fill-rule:nonzero;stroke:none;font-family:Helvetica;font-variant:normal;font-weight:bold;font-size:12;writing-mode:lr;-inkscape-font-specification:Helvetica-Bold"
                 x="0 3.996 8.664 15.336 22.668 30 36.672 44.004 50.676 57.348 60.684 64.68 74.676 83.34 89.34"
                 y="0"
                 sodipodi:role="line"
                 id="tspan298">frequency (MHz)</tspan></text>
<text
               transform="matrix(0,1,1,0,31.1668,132.833)"
               id="text300"><tspan
                 style="fill:#000000;fill-opacity:1;fill-rule:nonzero;stroke:none;font-family:Helvetica;font-variant:normal;font-weight:bold;font-size:12;writing-mode:lr;-inkscape-font-specification:Helvetica-Bold"
                 x="0 6.672 17.34 24.672 28.008 31.344 35.34 42.672 50.004 56.676 60.012 64.008 71.34 80.004"
                 y="0"
                 sodipodi:role="line"
                 id="tspan302">amplitude (dB)</tspan></text>
<text
               transform="matrix(1,0,0,-1,49,320.667)"
               id="text304"><tspan
                 style="fill:#000000;fill-opacity:1;fill-rule:nonzero;stroke:none;font-family:Helvetica;font-variant:normal;font-weight:bold;font-size:14;writing-mode:lr;-inkscape-font-specification:Helvetica-Bold"
                 x="0 10.108 22.554 31.108 35 38.892 43.554 52.108 60.662 68.446 72.338 77 85.554 95.662 100.324 104.216 112.77 117.432 121.324 132.216 140 148.554 156.338 164.122 168.014 175.798 184.352 188.244 196.798 205.352 209.244 217.028 224.812 228.704 232.596 241.15 245.042 249.704 255.15 262.934 271.488 280.042 287.826 296.38 304.164 311.948 315.84 324.394 332.948 345.394 353.178 357.07"
                 y="0"
                 sodipodi:role="line"
                 id="tspan306">Amplitude (dB) of Gaussian pulse in frequency domain</tspan></text>
<text
               transform="matrix(1,0,0,-1,251.833,45.25)"
               id="text308"><tspan
                 style="fill:#000000;fill-opacity:1;fill-rule:nonzero;stroke:none;font-family:Helvetica;font-variant:normal;font-weight:bold;font-size:12;writing-mode:lr;-inkscape-font-specification:Helvetica-Bold"
                 x="0"
                 y="0"
                 id="tspan310">f</tspan></text>
<text
               transform="matrix(1,0,0,-1,255.7498,39.25)"
               id="text312"><tspan
                 style="fill:#000000;fill-opacity:1;fill-rule:nonzero;stroke:none;font-family:Helvetica;font-variant:normal;font-weight:bold;font-size:9;writing-mode:lr;-inkscape-font-specification:Helvetica-Bold"
                 x="0"
                 y="0"
                 id="tspan314">0</tspan></text>
</g></g></g><g
         id="g316"><g
           id="g318"
           clip-path="url(#clipPath320)"><path
             d="m 2518.33,379.168 0,2678.332"
             style="fill:none;stroke:#b2b2b2;stroke-opacity:1;stroke-width:5;stroke-linecap:butt;stroke-linejoin:round;stroke-miterlimit:10;stroke-dasharray:60;stroke-dashoffset:0"
             id="path324" /></g></g><g
         id="g326"><g
           id="g328"
           clip-path="url(#clipPath330)"><path
             d="M 2476.67,3099.17 2560,3015.83"
             style="fill:none;stroke:#0000ff;stroke-opacity:1;stroke-width:5;stroke-linecap:butt;stroke-linejoin:round;stroke-miterlimit:10;stroke-dasharray:none"
             id="path334" /><path
             d="m 2560,3099.17 -83.33,-83.34"
             style="fill:none;stroke:#0000ff;stroke-opacity:1;stroke-width:5;stroke-linecap:butt;stroke-linejoin:round;stroke-miterlimit:10;stroke-dasharray:none"
             id="path336" /><g
             id="g338"
             transform="matrix(10,0,0,10,-140.20641,12.371153)"><text
               transform="matrix(1,0,0,-1,203.417,45.25)"
               id="text340"><tspan
                 style="font-size:12px;font-variant:normal;font-weight:bold;writing-mode:lr-tb;fill:#000000;fill-opacity:1;fill-rule:nonzero;stroke:none;font-family:Helvetica;-inkscape-font-specification:Helvetica-Bold"
                 x="0"
                 y="0"
                 id="tspan342">f</tspan></text>
<text
               transform="matrix(1,0,0,-1,207.33341,39.25)"
               id="text344"><tspan
                 style="font-size:9px;font-variant:normal;font-weight:bold;writing-mode:lr-tb;fill:#000000;fill-opacity:1;fill-rule:nonzero;stroke:none;font-family:Helvetica;-inkscape-font-specification:Helvetica-Bold"
                 x="0"
                 y="0"
                 id="tspan346">0</tspan></text>
<text
               transform="matrix(1,0,0,-1,212.33341,45.25)"
               id="text348"><tspan
                 style="font-size:12px;font-variant:normal;font-weight:bold;writing-mode:lr-tb;fill:#000000;fill-opacity:1;fill-rule:nonzero;stroke:none;font-family:Helvetica;-inkscape-font-specification:Helvetica-Bold"
                 x="0 7.0079999"
                 y="0"
                 sodipodi:role="line"
                 id="tspan350">−f</tspan></text>
<text
               transform="matrix(1,0,0,-1,223.33341,39.25)"
               id="text352"><tspan
                 style="font-size:9px;font-variant:normal;font-weight:bold;writing-mode:lr-tb;fill:#000000;fill-opacity:1;fill-rule:nonzero;stroke:none;font-family:Helvetica;-inkscape-font-specification:Helvetica-Bold"
                 x="0"
                 y="0"
                 id="tspan354">c</tspan></text>
<text
               transform="matrix(1,0,0,-1,228.33341,45.25)"
               id="text356"><tspan
                 style="font-size:12px;font-variant:normal;font-weight:bold;writing-mode:lr-tb;fill:#000000;fill-opacity:1;fill-rule:nonzero;stroke:none;font-family:Helvetica;-inkscape-font-specification:Helvetica-Bold"
                 x="0 3.336"
                 y="0"
                 sodipodi:role="line"
                 id="tspan358">/2</tspan></text>
</g></g></g><g
         id="g360"><g
           id="g362"
           clip-path="url(#clipPath364)"><path
             d="m 2034.17,379.168 0,2374.162"
             style="fill:none;stroke:#b2b2b2;stroke-opacity:1;stroke-width:5;stroke-linecap:butt;stroke-linejoin:round;stroke-miterlimit:10;stroke-dasharray:60;stroke-dashoffset:0"
             id="path368" /></g></g><g
         id="g370"><g
           id="g372"
           clip-path="url(#clipPath374)"><path
             d="m 1992.5,2795 83.33,-83.33"
             style="fill:none;stroke:#0000ff;stroke-opacity:1;stroke-width:5;stroke-linecap:butt;stroke-linejoin:round;stroke-miterlimit:10;stroke-dasharray:none"
             id="path378" /><path
             d="m 2075.83,2795 -83.33,-83.33"
             style="fill:none;stroke:#0000ff;stroke-opacity:1;stroke-width:5;stroke-linecap:butt;stroke-linejoin:round;stroke-miterlimit:10;stroke-dasharray:none"
             id="path380" /><g
             id="g382"
             transform="matrix(10,0,0,10,-119.58782,16.494871)"><text
               transform="matrix(1,0,0,-1,155,45.25)"
               id="text384"><tspan
                 style="font-size:12px;font-variant:normal;font-weight:bold;writing-mode:lr-tb;fill:#000000;fill-opacity:1;fill-rule:nonzero;stroke:none;font-family:Helvetica;-inkscape-font-specification:Helvetica-Bold"
                 x="0"
                 y="0"
                 id="tspan386">f</tspan></text>
<text
               transform="matrix(1,0,0,-1,158.9168,39.25)"
               id="text388"><tspan
                 style="font-size:9px;font-variant:normal;font-weight:bold;writing-mode:lr-tb;fill:#000000;fill-opacity:1;fill-rule:nonzero;stroke:none;font-family:Helvetica;-inkscape-font-specification:Helvetica-Bold"
                 x="0"
                 y="0"
                 id="tspan390">0</tspan></text>
<text
               transform="matrix(1,0,0,-1,163.9168,45.25)"
               id="text392"><tspan
                 style="font-size:12px;font-variant:normal;font-weight:bold;writing-mode:lr-tb;fill:#000000;fill-opacity:1;fill-rule:nonzero;stroke:none;font-family:Helvetica;-inkscape-font-specification:Helvetica-Bold"
                 x="0 7.0079999"
                 y="0"
                 sodipodi:role="line"
                 id="tspan394">−f</tspan></text>
<text
               transform="matrix(1,0,0,-1,174.9168,39.25)"
               id="text396"><tspan
                 style="font-size:9px;font-variant:normal;font-weight:bold;writing-mode:lr-tb;fill:#000000;fill-opacity:1;fill-rule:nonzero;stroke:none;font-family:Helvetica;-inkscape-font-specification:Helvetica-Bold"
                 x="0"
                 y="0"
                 id="tspan398">c</tspan></text>
</g></g></g><g
         id="g400"><g
           id="g402"
           clip-path="url(#clipPath404)"><path
             d="M 1550,379.168 1550,1840"
             style="fill:none;stroke:#b2b2b2;stroke-opacity:1;stroke-width:5;stroke-linecap:butt;stroke-linejoin:round;stroke-miterlimit:10;stroke-dasharray:60;stroke-dashoffset:0"
             id="path408" /></g></g><g
         id="g410"><g
           id="g412"
           clip-path="url(#clipPath414)"><path
             d="m 1508.33,1881.67 83.34,-83.34"
             style="fill:none;stroke:#0000ff;stroke-opacity:1;stroke-width:5;stroke-linecap:butt;stroke-linejoin:round;stroke-miterlimit:10;stroke-dasharray:none"
             id="path418" /><path
             d="m 1591.67,1881.67 -83.34,-83.34"
             style="fill:none;stroke:#0000ff;stroke-opacity:1;stroke-width:5;stroke-linecap:butt;stroke-linejoin:round;stroke-miterlimit:10;stroke-dasharray:none"
             id="path420" /><g
             id="g422"
             transform="matrix(10,0,0,10,-123.71153,8.2474357)"><text
               transform="matrix(1,0,0,-1,300.25,45.25)"
               id="text424"><tspan
                 style="font-size:12px;font-variant:normal;font-weight:bold;writing-mode:lr-tb;fill:#000000;fill-opacity:1;fill-rule:nonzero;stroke:none;font-family:Helvetica;-inkscape-font-specification:Helvetica-Bold"
                 x="0"
                 y="0"
                 id="tspan426">f</tspan></text>
<text
               transform="matrix(1,0,0,-1,304.1668,39.25)"
               id="text428"><tspan
                 style="font-size:9px;font-variant:normal;font-weight:bold;writing-mode:lr-tb;fill:#000000;fill-opacity:1;fill-rule:nonzero;stroke:none;font-family:Helvetica;-inkscape-font-specification:Helvetica-Bold"
                 x="0"
                 y="0"
                 id="tspan430">0</tspan></text>
<text
               transform="matrix(1,0,0,-1,309.1668,45.25)"
               id="text432"><tspan
                 style="font-size:12px;font-variant:normal;font-weight:bold;writing-mode:lr-tb;fill:#000000;fill-opacity:1;fill-rule:nonzero;stroke:none;font-family:Helvetica;-inkscape-font-specification:Helvetica-Bold"
                 x="0 7.0079999"
                 y="0"
                 sodipodi:role="line"
                 id="tspan434">+f</tspan></text>
<text
               transform="matrix(1,0,0,-1,320.1668,39.25)"
               id="text436"><tspan
                 style="font-size:9px;font-variant:normal;font-weight:bold;writing-mode:lr-tb;fill:#000000;fill-opacity:1;fill-rule:nonzero;stroke:none;font-family:Helvetica;-inkscape-font-specification:Helvetica-Bold"
                 x="0"
                 y="0"
                 id="tspan438">c</tspan></text>
<text
               transform="matrix(1,0,0,-1,325.1668,45.25)"
               id="text440"><tspan
                 style="font-size:12px;font-variant:normal;font-weight:bold;writing-mode:lr-tb;fill:#000000;fill-opacity:1;fill-rule:nonzero;stroke:none;font-family:Helvetica;-inkscape-font-specification:Helvetica-Bold"
                 x="0 3.336"
                 y="0"
                 sodipodi:role="line"
                 id="tspan442">/2</tspan></text>
</g></g></g><g
         id="g444"><g
           id="g446"
           clip-path="url(#clipPath448)"><path
             d="m 3002.5,379.168 0,2374.162"
             style="fill:none;stroke:#b2b2b2;stroke-opacity:1;stroke-width:5;stroke-linecap:butt;stroke-linejoin:round;stroke-miterlimit:10;stroke-dasharray:60;stroke-dashoffset:0"
             id="path452" /></g></g><g
         id="g454"><g
           id="g456"
           clip-path="url(#clipPath458)"><path
             d="m 2960.83,2795 83.34,-83.33"
             style="fill:none;stroke:#0000ff;stroke-opacity:1;stroke-width:5;stroke-linecap:butt;stroke-linejoin:round;stroke-miterlimit:10;stroke-dasharray:none"
             id="path462" /><path
             d="m 3044.17,2795 -83.34,-83.33"
             style="fill:none;stroke:#0000ff;stroke-opacity:1;stroke-width:5;stroke-linecap:butt;stroke-linejoin:round;stroke-miterlimit:10;stroke-dasharray:none"
             id="path464" /><g
             id="g466"
             transform="matrix(10,0,0,10,-111.34038,12.371153)"><text
               transform="matrix(1,0,0,-1,348.667,45.25)"
               id="text468"><tspan
                 style="font-size:12px;font-variant:normal;font-weight:bold;writing-mode:lr-tb;fill:#000000;fill-opacity:1;fill-rule:nonzero;stroke:none;font-family:Helvetica;-inkscape-font-specification:Helvetica-Bold"
                 x="0"
                 y="0"
                 id="tspan470">f</tspan></text>
<text
               transform="matrix(1,0,0,-1,352.58341,39.25)"
               id="text472"><tspan
                 style="font-size:9px;font-variant:normal;font-weight:bold;writing-mode:lr-tb;fill:#000000;fill-opacity:1;fill-rule:nonzero;stroke:none;font-family:Helvetica;-inkscape-font-specification:Helvetica-Bold"
                 x="0"
                 y="0"
                 id="tspan474">0</tspan></text>
<text
               transform="matrix(1,0,0,-1,357.58341,45.25)"
               id="text476"><tspan
                 style="font-size:12px;font-variant:normal;font-weight:bold;writing-mode:lr-tb;fill:#000000;fill-opacity:1;fill-rule:nonzero;stroke:none;font-family:Helvetica;-inkscape-font-specification:Helvetica-Bold"
                 x="0 7.0079999"
                 y="0"
                 sodipodi:role="line"
                 id="tspan478">+f</tspan></text>
<text
               transform="matrix(1,0,0,-1,368.58341,39.25)"
               id="text480"><tspan
                 style="font-size:9px;font-variant:normal;font-weight:bold;writing-mode:lr-tb;fill:#000000;fill-opacity:1;fill-rule:nonzero;stroke:none;font-family:Helvetica;-inkscape-font-specification:Helvetica-Bold"
                 x="0"
                 y="0"
                 id="tspan482">c</tspan></text>
</g></g></g><g
         id="g484"><g
           id="g486"
           clip-path="url(#clipPath488)"><path
             d="m 3486.67,379.168 0,1460.832"
             style="fill:none;stroke:#b2b2b2;stroke-opacity:1;stroke-width:5;stroke-linecap:butt;stroke-linejoin:round;stroke-miterlimit:10;stroke-dasharray:60;stroke-dashoffset:0"
             id="path492" /></g></g><g
         id="g494"><g
           id="g496"
           clip-path="url(#clipPath498)"><path
             d="m 3445,1881.67 83.33,-83.34"
             style="fill:none;stroke:#0000ff;stroke-opacity:1;stroke-width:5;stroke-linecap:butt;stroke-linejoin:round;stroke-miterlimit:10;stroke-dasharray:none"
             id="path502" /><path
             d="M 3528.33,1881.67 3445,1798.33"
             style="fill:none;stroke:#0000ff;stroke-opacity:1;stroke-width:5;stroke-linecap:butt;stroke-linejoin:round;stroke-miterlimit:10;stroke-dasharray:none"
             id="path504" /></g></g><g
         id="g516" /><g
         id="g538"><g
           id="g540"
           clip-path="url(#clipPath542)"><path
             d="m 582.5,2753.33 3471.67,0"
             style="fill:none;stroke:#b2b2b2;stroke-opacity:1;stroke-width:5;stroke-linecap:butt;stroke-linejoin:round;stroke-miterlimit:10;stroke-dasharray:60;stroke-dashoffset:0"
             id="path546" /></g></g><g
         id="g548"><g
           id="g550"
           clip-path="url(#clipPath552)"><path
             d="M 4033.33,2774.17 4075,2732.5"
             style="fill:none;stroke:#b2b2b2;stroke-opacity:1;stroke-width:5;stroke-linecap:butt;stroke-linejoin:round;stroke-miterlimit:10;stroke-dasharray:none"
             id="path556" /><path
             d="m 4075,2774.17 -41.67,-41.67"
             style="fill:none;stroke:#b2b2b2;stroke-opacity:1;stroke-width:5;stroke-linecap:butt;stroke-linejoin:round;stroke-miterlimit:10;stroke-dasharray:none"
             id="path558" /></g></g></g></g></svg>